<svg xmlns="http://www.w3.org/2000/svg" xmlns:xlink="http://www.w3.org/1999/xlink" xmlns:lucid="lucid" width="2040" height="900"><g transform="translate(-60 -60)" lucid:page-tab-id="0_0"><path d="M0 0h2500v1000H0z" fill="#fff"/><path d="M930 80c16.57 0 30 13.43 30 30v240c0 16.57-13.43 30-30 30H310c-16.57 0-30-13.43-30-30V110c0-16.57 13.43-30 30-30z" stroke="#3a414a" stroke-width="2" fill="#e3fae3"/><use xlink:href="#a" transform="matrix(1,0,0,1,318,88) translate(235.42592592592592 17.944444444444443)"/><use xlink:href="#b" transform="matrix(1,0,0,1,318,88) translate(302.03086419753083 17.944444444444443)"/><path d="M930 420c16.57 0 30 13.43 30 30v180c0 16.57-13.43 30-30 30H310c-16.57 0-30-13.43-30-30V450c0-16.57 13.43-30 30-30z" stroke="#3a414a" stroke-width="2" fill="#e3fae3"/><use xlink:href="#a" transform="matrix(1,0,0,1,318,428) translate(235.42592592592592 17.944444444444443)"/><use xlink:href="#b" transform="matrix(1,0,0,1,318,428) translate(302.03086419753083 17.944444444444443)"/><path d="M1850 309c16.57 0 30 13.43 30 30v149c0 16.57-13.43 30-30 30h-180c-16.57 0-30-13.43-30-30V339c0-16.57 13.43-30 30-30z" stroke="#3a414a" stroke-width="2" fill="#e3fae3"/><use xlink:href="#a" transform="matrix(1,0,0,1,1678,317) translate(16.012345679012356 17.944444444444443)"/><use xlink:href="#c" transform="matrix(1,0,0,1,1678,317) translate(82.61728395061729 17.944444444444443)"/><path d="M1850 560c16.57 0 30 13.43 30 30v149c0 16.57-13.43 30-30 30h-180c-16.57 0-30-13.43-30-30V590c0-16.57 13.43-30 30-30z" stroke="#3a414a" stroke-width="2" fill="#e3fae3"/><use xlink:href="#a" transform="matrix(1,0,0,1,1678,568) translate(16.012345679012356 17.944444444444443)"/><use xlink:href="#c" transform="matrix(1,0,0,1,1678,568) translate(82.61728395061729 17.944444444444443)"/><path d="M1570 260c16.57 0 30 13.43 30 30v458c0 16.57-13.43 30-30 30h-420c-16.57 0-30-13.43-30-30V290c0-16.57 13.43-30 30-30z" stroke="#3a414a" stroke-width="2" fill="#e3fae3"/><use xlink:href="#d" transform="matrix(1,0,0,1,1158,268) translate(133.6358024691358 17.944444444444443)"/><use xlink:href="#e" transform="matrix(1,0,0,1,1158,268) translate(200.17901234567898 17.944444444444443)"/><path d="M80 206a6 6 0 0 1 6-6h148a6 6 0 0 1 6 6v114c-26.72-20.04-43.36-20.04-53.44-20.04-16 0-37.28 20.04-53.28 20.04-9.92 0-26.72 0-53.28-20.04z" stroke="#3a414a" stroke-width="3" fill="#bef"/><use xlink:href="#f" transform="matrix(1,0,0,1,85,205) translate(27.592592592592595 48.71527777777778)"/><use xlink:href="#g" transform="matrix(1,0,0,1,85,205) translate(94.1358024691358 48.71527777777778)"/><path d="M80 504a6 6 0 0 1 6-6h148a6 6 0 0 1 6 6v114c-26.72-20.03-43.36-20.03-53.44-20.03-16 0-37.28 20.04-53.28 20.04-9.92 0-26.72 0-53.28-20.03z" stroke="#3a414a" stroke-width="3" fill="#bef"/><use xlink:href="#h" transform="matrix(1,0,0,1,85,503.0069344408723) translate(37.37654320987654 37.46527777777778)"/><use xlink:href="#f" transform="matrix(1,0,0,1,85,503.0069344408723) translate(27.592592592592595 64.13194444444446)"/><use xlink:href="#g" transform="matrix(1,0,0,1,85,503.0069344408723) translate(94.1358024691358 64.13194444444446)"/><path d="M359.8 543.8a7.8 7.8 0 0 1 7.53-5.8H494a4.6 4.6 0 0 1 4.45 5.8l-18.24 68.4a7.8 7.8 0 0 1-7.53 5.8H346a4.6 4.6 0 0 1-4.45-5.8z" fill="#c3f7c8"/><path d="M363.7 538.9l.64-.3.97-.34 1-.2h2.96m3.93 0h5.88m3.93 0h5.9m3.93 0l5.9-.02m3.92 0h5.9m3.93 0h5.9m3.92 0h5.9m3.92 0l5.9-.02m3.92 0h5.9m3.93 0h5.9m3.92 0h5.88m3.93-.02h5.9m3.93 0h5.9m3.92 0H494l.84.07.8.23.54.26m2.02 2.18l.22.55.16.82.02.84-.8 2.97m-1.04 3.95l-1.58 5.94m-1.05 3.95l-1.57 5.94m-1.05 3.96l-1.57 5.94m-1.05 3.96l-1.58 5.93m-1.05 3.95l-1.57 5.93m-1.05 3.96l-1.58 5.93m-1.05 3.96l-.8 2.97-.3.96-.47.92-.4.6m-2.73 2.4l-.64.32-.97.33-1 .2h-2.96m-3.93 0h-5.88m-3.93 0h-5.9m-3.93 0h-5.9m-3.92.02h-5.9m-3.93 0h-5.9m-3.92 0h-5.9m-3.92 0h-5.9m-3.92.02h-5.9m-3.93 0h-5.9m-3.92 0h-5.88m-3.93 0h-5.9m-3.93.02h-5.9m-3.92 0H346l-.84-.08-.8-.23-.54-.27m-2.02-2.2l-.22-.53-.16-.83-.02-.84.8-2.97m1.04-3.96l1.58-5.93m1.05-3.96l1.57-5.92m1.05-3.96l1.57-5.93m1.05-3.97l1.58-5.93m1.05-3.96l1.57-5.94m1.05-3.95l1.58-5.94m1.05-3.94l.8-2.97.3-.98.47-.92.4-.6" stroke="#3a414a" stroke-width="2" fill="none"/><use xlink:href="#i" transform="matrix(1,0,0,1,345,542.9930655591278) translate(34.9124074074074 39.65277777777778)"/><path d="M348.83 285.8a7.8 7.8 0 0 1 7.54-5.8h126.67a4.6 4.6 0 0 1 4.45 5.8l-18.25 68.4a7.8 7.8 0 0 1-7.54 5.8H335.05a4.6 4.6 0 0 1-4.46-5.8z" fill="#c3f7c8"/><path d="M352.74 280.9l.64-.3.97-.33 1-.2h2.95m3.93 0h5.9m3.92 0h5.9m3.92-.02h5.9m3.92 0h5.9m3.92 0h5.9m3.92 0l5.9-.02m3.92 0h5.9m3.92 0h5.9m3.92 0h5.9m3.93 0l5.9-.02m3.92 0h5.9m3.92 0h5.9m3.92 0h2.94l.84.08.8.23.54.27m2.02 2.18l.22.55.16.82v.85l-.77 2.96m-1.05 3.96l-1.58 5.92m-1.05 3.96l-1.58 5.94m-1.06 3.95l-1.57 5.94m-1.05 3.96l-1.58 5.94m-1.05 3.95l-1.58 5.94m-1.05 3.94l-1.58 5.94m-1.06 3.96l-.8 2.96-.32.97-.45.92-.4.58m-2.73 2.4l-.64.32-.97.33-1 .2h-2.95m-3.93 0h-5.9m-3.92 0h-5.9m-3.92.02h-5.9m-3.92 0h-5.9m-3.92 0h-5.9m-3.92 0l-5.9.02m-3.92 0h-5.9m-3.92 0h-5.9m-3.93 0h-5.9m-3.92 0l-5.9.02m-3.92 0h-5.9m-3.92 0h-5.9m-3.9 0h-2.96l-.84-.08-.8-.23-.54-.27m-2.02-2.18l-.22-.55-.17-.82v-.85l.78-2.96m1.05-3.96l1.58-5.92m1.05-3.96l1.58-5.94m1.05-3.95l1.58-5.94m1.06-3.96l1.58-5.94m1.05-3.95l1.56-5.94m1.05-3.94l1.6-5.94m1.04-3.96l.8-2.96.3-.97.46-.92.4-.58" stroke="#3a414a" stroke-width="2" fill="none"/><use xlink:href="#j" transform="matrix(1,0,0,1,334.03840204171706,285) translate(31.239567901234572 39.65277777777778)"/><path d="M348.83 225.8a7.8 7.8 0 0 1 7.54-5.8h126.67a4.6 4.6 0 0 1 4.45 5.8l-18.25 68.4a7.8 7.8 0 0 1-7.54 5.8H335.05a4.6 4.6 0 0 1-4.46-5.8z" stroke="#3a414a" stroke-width="3" fill="#c3f7c8"/><use xlink:href="#i" transform="matrix(1,0,0,1,334.03840204171706,225) translate(34.9124074074074 39.65277777777778)"/><path d="M348.83 165.8a7.8 7.8 0 0 1 7.54-5.8h126.67a4.6 4.6 0 0 1 4.45 5.8l-18.25 68.4a7.8 7.8 0 0 1-7.54 5.8H335.05a4.6 4.6 0 0 1-4.46-5.8z" stroke="#3a414a" stroke-width="3" fill="#c3f7c8"/><use xlink:href="#i" transform="matrix(1,0,0,1,334.03840204171706,165) translate(34.9124074074074 39.65277777777778)"/><path d="M348.83 523.8a7.8 7.8 0 0 1 7.54-5.8h126.67a4.6 4.6 0 0 1 4.45 5.8l-18.25 68.4a7.8 7.8 0 0 1-7.54 5.8H335.05a4.6 4.6 0 0 1-4.46-5.8z" stroke="#3a414a" stroke-width="3" fill="#c3f7c8"/><use xlink:href="#k" transform="matrix(1,0,0,1,334.03840204171706,523.0069344408723) translate(22.01117283950616 39.65277777777778)"/><path d="M242.47 280.25h3.04m4.05 0h6.07m4.05 0h6.06m4.05 0h6.07m4.04 0h6.06m4.04 0h3.04l.94.08.9.22.62.25m2.54 2.17l.34.56.36.87.22.9v2.88M299 292l.02 5.74m0 3.83l.02 5.74m0 3.83l.02 2.87.07.94.23.9.25.62m2.17 2.54l.56.35.88.36.92.23h3.28m4.37 0l6.56.03m4.38 0l6.56.02m4.37 0l3.3.02" stroke="#3a414a" stroke-width="2" fill="none"/><path d="M242.5 281.25h-1.02v-2h1.02z" stroke="#3a414a" stroke-width=".05" fill="#3a414a"/><path d="M319.53 330.18L336.75 320l-17.22-10.18" stroke="#3a414a" stroke-width="2" fill="none"/><path d="M243.45 241.1h49.6a6 6 0 0 0 6-6V206a6 6 0 0 1 6-6h29.5" stroke="#3a414a" stroke-width="4" fill="none"/><path d="M243.5 243.1h-2.05v-4h2.05z" stroke="#3a414a" stroke-width=".05" fill="#3a414a"/><path d="M317.05 210.18l17.2-10.18-17.2-10.18M243.46 260h91.1" stroke="#3a414a" stroke-width="4" fill="none"/><path d="M243.5 262h-2.04v-4h2.05z" stroke="#3a414a" stroke-width=".05" fill="#3a414a"/><path d="M317.05 270.18l17.2-10.18-17.2-10.18" stroke="#3a414a" stroke-width="4" fill="none"/><path d="M760 206a6 6 0 0 1 6-6h148a6 6 0 0 1 6 6v108a6 6 0 0 1-6 6H766a6 6 0 0 1-6-6zm16-6v120m-16-104h160" stroke="#3a414a" stroke-width="2" fill="#bef"/><use xlink:href="#l" transform="matrix(1,0,0,1,781,221) translate(38.66666666666667 38.34027777777778)"/><use xlink:href="#m" transform="matrix(1,0,0,1,781,221) translate(37.370370370370374 65.00694444444446)"/><path d="M480.37 320h2.88m3.85 0h5.77m3.85 0h5.77m3.83 0h2.9l.93-.07.9-.22.62-.25m2.54-2.16l.34-.58.36-.87.22-.9v-2.77m.02-3.68l.02-5.53m0-3.68l.02-5.53m0-3.68l.02-2.77.07-.94.2-.93.26-.6m2.17-2.54l.56-.35.86-.36.92-.22h2.9m3.86-.02h5.8m3.86-.02l5.8-.02m3.85 0h2.9" stroke="#3a414a" stroke-width="2" fill="none"/><path d="M480.4 321h-1.3l.53-2h.76z" stroke="#3a414a" stroke-width=".05" fill="#3a414a"/><path d="M531.9 291.5l17.2-10.17-17.2-10.18" stroke="#3a414a" stroke-width="2" fill="none"/><path d="M552.02 206a6 6 0 0 1 6-6h148a6 6 0 0 1 6 6v108a6 6 0 0 1-6 6h-148a6 6 0 0 1-6-6z" stroke="#3a414a" stroke-width="2" fill="#c3f7c8"/><use xlink:href="#n" transform="matrix(1,0,0,1,564.0192010208585,212) translate(37.19753086419753 38.77777777777778)"/><use xlink:href="#o" transform="matrix(1,0,0,1,564.0192010208585,212) translate(36.54938271604939 65.44444444444446)"/><path d="M714.98 260h40.42" stroke="#3a414a" stroke-width="4" fill="none"/><path d="M715.03 262h-2.05v-4h2.05z" stroke="#3a414a" stroke-width=".05" fill="#3a414a"/><path d="M737.9 270.18L755.1 260l-17.2-10.18M481.88 200h27.58a6 6 0 0 1 6 6v25.33a6 6 0 0 0 6 6h25.94" stroke="#3a414a" stroke-width="4" fill="none"/><path d="M481.94 202h-2.6l1.08-4h1.52z" stroke="#3a414a" stroke-width=".05" fill="#3a414a"/><path d="M529.9 247.5l17.2-10.17-17.2-10.18M481.88 260h65.54" stroke="#3a414a" stroke-width="4" fill="none"/><path d="M481.94 262h-2.6l1.08-4h1.52z" stroke="#3a414a" stroke-width=".05" fill="#3a414a"/><path d="M529.9 270.18L547.14 260l-17.22-10.18M243.46 558.33H334.48" stroke="#3a414a" stroke-width="4" fill="none"/><path d="M243.5 560.33h-2.04v-4h2.05z" stroke="#3a414a" stroke-width=".05" fill="#3a414a"/><path d="M316.96 568.5l17.22-10.17-17.22-10.18" stroke="#3a414a" stroke-width="4" fill="none"/><path d="M547.02 504a6 6 0 0 1 6-6h148a6 6 0 0 1 6 6v108a6 6 0 0 1-6 6h-148a6 6 0 0 1-6-6z" stroke="#3a414a" stroke-width="2" fill="#c3f7c8"/><use xlink:href="#n" transform="matrix(1,0,0,1,559.0192010208585,510) translate(37.19753086419753 38.77777777777778)"/><use xlink:href="#o" transform="matrix(1,0,0,1,559.0192010208585,510) translate(36.54938271604939 65.44444444444446)"/><path d="M481.88 558H542.42" stroke="#3a414a" stroke-width="4" fill="none"/><path d="M481.94 560h-2.6l1.08-4h1.52z" stroke="#3a414a" stroke-width=".05" fill="#3a414a"/><path d="M524.9 568.18L542.14 558l-17.22-10.18" stroke="#3a414a" stroke-width="4" fill="none"/><path d="M930 700c16.57 0 30 13.43 30 30v180c0 16.57-13.43 30-30 30H310c-16.57 0-30-13.43-30-30V730c0-16.57 13.43-30 30-30z" fill="#e3fae3"/><path d="M936.53 700.8l3.3.84 2.05.9m3.36 1.7l3.3 2.17 1.24 1.17m2.7 2.6l2.78 3.64.5.96m1.77 3.33l.07.1 1.56 4.72.08.54m.58 3.72l.1.67.08 2.15v3m0 4v6m0 4v6m0 4v6m0 4v6m0 4v6m0 4v6m0 4v6m0 4v6m0 4v6m0 4v6m0 4v6m0 4v6m0 4v6m0 4v6m0 4v6m0 4v6m0 4v6m0 4v3l-.23 2.8m-.57 3.73l-.84 3.3-.9 2.05m-1.7 3.36l-2.17 3.3-1.17 1.24m-2.6 2.7l-3.64 2.78-.96.5m-3.33 1.77l-.1.07-4.72 1.56-.54.08m-3.72.58l-.67.1-2.15.08h-3m-4 0h-6m-4 0h-6m-4 0h-6m-4 0h-6m-4 0h-6m-4 0h-6m-4 0h-6m-4 0h-6m-4 0h-6m-4 0h-6m-4 0h-6m-4 0h-6m-4 0h-6m-4 0h-6m-4 0h-6m-4 0h-6m-4 0h-6m-4 0h-6m-4 0h-6m-4 0h-6m-4 0h-6m-4 0h-6m-4 0h-6m-4 0h-6m-4 0h-6m-4 0h-6m-4 0h-6m-4 0h-6m-4 0h-6m-4 0h-6m-4 0h-6m-4 0h-6m-4 0h-6m-4 0h-6m-4 0h-6m-4 0h-6m-4 0h-6m-4 0h-6m-4 0h-6m-4 0h-6m-4 0h-6m-4 0h-6m-4 0h-6m-4 0h-6m-4 0h-6m-4 0h-6m-4 0h-6m-4 0h-6m-4 0h-6m-4 0h-6m-4 0h-6m-4 0h-6m-4 0h-6m-4 0h-6m-4 0h-6m-4 0h-6m-4 0h-6m-4 0h-6m-4 0h-6m-4 0h-6m-4 0h-6m-4 0h-3l-2.8-.23m-3.73-.57l-3.3-.84-2.05-.9m-3.36-1.7l-3.3-2.17-1.24-1.17m-2.7-2.6l-2.78-3.64-.5-.96m-1.77-3.33l-.07-.1-1.56-4.72-.08-.54m-.58-3.72l-.1-.67L280 910v-3m0-4v-6m0-4v-6m0-4v-6m0-4v-6m0-4v-6m0-4v-6m0-4v-6m0-4v-6m0-4v-6m0-4v-6m0-4v-6m0-4v-6m0-4v-6m0-4v-6m0-4v-6m0-4v-6m0-4v-6m0-4v-3l.23-2.8m.57-3.73l.84-3.3.9-2.05m1.7-3.36l2.17-3.3 1.17-1.24m2.6-2.7l3.64-2.78.96-.5m3.33-1.77l.1-.07 4.72-1.56.54-.08m3.72-.58l.67-.1L310 700h3m4 0h6m4 0h6m4 0h6m4 0h6m4 0h6m4 0h6m4 0h6m4 0h6m4 0h6m4 0h6m4 0h6m4 0h6m4 0h6m4 0h6m4 0h6m4 0h6m4 0h6m4 0h6m4 0h6m4 0h6m4 0h6m4 0h6m4 0h6m4 0h6m4 0h6m4 0h6m4 0h6m4 0h6m4 0h6m4 0h6m4 0h6m4 0h6m4 0h6m4 0h6m4 0h6m4 0h6m4 0h6m4 0h6m4 0h6m4 0h6m4 0h6m4 0h6m4 0h6m4 0h6m4 0h6m4 0h6m4 0h6m4 0h6m4 0h6m4 0h6m4 0h6m4 0h6m4 0h6m4 0h6m4 0h6m4 0h6m4 0h6m4 0h6m4 0h6m4 0h6m4 0h6m4 0h3l2.8.23" stroke="#3a414a" stroke-width="2" fill="none"/><use xlink:href="#p" transform="matrix(1,0,0,1,318,708) translate(180.51851851851853 17.944444444444443)"/><use xlink:href="#q" transform="matrix(1,0,0,1,318,708) translate(259.46913580246917 17.944444444444443)"/><use xlink:href="#r" transform="matrix(1,0,0,1,318,708) translate(326.0740740740741 17.944444444444443)"/><path d="M80 784a6 6 0 0 1 6-6h148a6 6 0 0 1 6 6v114c-26.72-20.04-43.36-20.04-53.44-20.04-16 0-37.28 20.04-53.28 20.04-9.92 0-26.72 0-53.28-20.04z" fill="#bef"/><path d="M82.7 779l.58-.35.87-.36.9-.23h3m3.96 0h5.97m3.97 0h5.96m3.97 0h5.96m3.97 0l5.96-.02m3.97 0h5.96m3.96 0h5.96m3.97 0h5.94m3.98 0l5.95-.02m3.98 0h5.95m3.98 0h5.95m3.97 0h5.96m3.97 0l5.96-.02m3.96 0h5.96m3.97 0h5.95m3.97 0H234l.94.07.9.22.62.25m2.54 2.16l.35.58.36.87.23.9v3.15m0 4.18v6.27m0 4.17v6.27m0 4.17l.02 6.27m0 4.18V828m0 4.17v6.27m0 4.18l.02 6.27m0 4.17v6.27m0 4.18v6.27m0 4.17l.02 6.27m0 4.18v6.27m0 4.17V898l-2.4-1.64m-3.2-2.2l-4.82-3.28m-3.36-1.93l-5.1-2.82m-3.5-1.65l-4.8-2.1-.56-.17m-3.7-1.2l-2.12-.7-3.5-.8m-3.8-.72l-4.38-.56-1.4-.05m-3.9-.12l-2.9-.1-1.95.1-.9.13m-3.75.77l-.73.17-4.26 1.47-.44.2m-3.48 1.6l-3.98 1.82-1.22.6m-3.42 1.73l-5.13 2.58m-3.43 1.72l-5.14 2.58m-3.42 1.72l-.42.22-4.26 1.47-.73.17m-3.76.78l-.9.13-1.96.1-2.9-.1m-3.87-.15l-2.1-.07-3.66-.52m-3.8-.7l-4.26-1.02-1.36-.47m-3.66-1.25l-1.46-.5-3.9-1.75m-3.52-1.6l-.05-.02-5-2.85m-3.36-1.92l-.58-.33-4.23-2.93m-3.18-2.2l-2.4-1.66v-3.13m0-4.18v-6.26m0-4.2v-6.25m0-4.18v-6.26m0-4.17v-6.26m0-4.18v-6.27m0-4.18v-6.26m0-4.2v-6.25m0-4.18v-6.26m0-4.17V784l.07-.94.22-.9.25-.62" stroke="#3a414a" stroke-width="2" fill="none"/><use xlink:href="#s" transform="matrix(1,0,0,1,85,783) translate(40.49382716049383 37.46527777777778)"/><use xlink:href="#f" transform="matrix(1,0,0,1,85,783) translate(12.777777777777779 64.13194444444446)"/><use xlink:href="#t" transform="matrix(1,0,0,1,85,783) translate(79.32098765432099 64.13194444444446)"/><path d="M359.8 825.8a7.8 7.8 0 0 1 7.53-5.8H494a4.6 4.6 0 0 1 4.45 5.8l-18.24 68.4a7.8 7.8 0 0 1-7.53 5.8H346a4.6 4.6 0 0 1-4.45-5.8z" fill="#c3f7c8"/><path d="M363.7 820.9l.64-.3.97-.33 1-.2h2.96m3.93 0h5.88m3.93 0h5.9m3.93-.02h5.9m3.92 0h5.9m3.93 0h5.9m3.92 0l5.9-.02m3.92 0h5.9m3.92 0h5.9m3.93 0h5.9m3.92 0l5.88-.02m3.93 0h5.9m3.93 0h5.9m3.92 0H494l.84.08.8.23.54.27m2.02 2.18l.22.55.16.82.02.85-.8 2.96m-1.04 3.96l-1.58 5.92m-1.05 3.96l-1.57 5.94m-1.05 3.95l-1.57 5.94m-1.05 3.96l-1.58 5.94m-1.05 3.95l-1.57 5.94m-1.05 3.94l-1.58 5.94m-1.05 3.96l-.8 2.96-.3.97-.47.92-.4.58m-2.73 2.4l-.64.32-.97.33-1 .2h-2.96m-3.93 0h-5.88m-3.93 0h-5.9m-3.93.02h-5.9m-3.92 0h-5.9m-3.93 0h-5.9m-3.92 0l-5.9.02m-3.92 0h-5.9m-3.92 0h-5.9m-3.93 0h-5.9m-3.92 0l-5.88.02m-3.93 0h-5.9m-3.93 0h-5.9m-3.92 0H346l-.84-.08-.8-.23-.54-.27m-2.02-2.18l-.22-.55-.16-.82-.02-.85.8-2.96m1.04-3.96l1.58-5.92m1.05-3.96l1.57-5.94m1.05-3.95l1.57-5.94m1.05-3.96l1.58-5.94m1.05-3.95l1.57-5.94m1.05-3.94l1.58-5.94m1.05-3.96l.8-2.96.3-.97.47-.92.4-.58" stroke="#3a414a" stroke-width="2" fill="none"/><path d="M348.83 803.8a7.8 7.8 0 0 1 7.54-5.8h126.67a4.6 4.6 0 0 1 4.45 5.8l-18.25 68.4a7.8 7.8 0 0 1-7.54 5.8H335.05a4.6 4.6 0 0 1-4.46-5.8z" fill="#c3f7c8"/><path d="M352.74 798.9l.64-.3.97-.33 1-.2h2.95m3.93 0h5.9m3.92 0h5.9m3.92-.02h5.9m3.92 0h5.9m3.92 0h5.9m3.92 0l5.9-.02m3.92 0h5.9m3.92 0h5.9m3.92 0h5.9m3.93 0l5.9-.02m3.92 0h5.9m3.92 0h5.9m3.92 0h2.94l.84.08.8.23.54.27m2.02 2.18l.22.55.16.82v.85l-.77 2.96m-1.05 3.96l-1.58 5.92m-1.05 3.96l-1.58 5.94m-1.06 3.95l-1.57 5.94m-1.05 3.96l-1.58 5.94m-1.05 3.95l-1.58 5.94m-1.05 3.94l-1.58 5.94m-1.06 3.96l-.8 2.96-.32.97-.45.92-.4.58m-2.73 2.4l-.64.32-.97.33-1 .2h-2.95m-3.93 0h-5.9m-3.92 0h-5.9m-3.92.02h-5.9m-3.92 0h-5.9m-3.92 0h-5.9m-3.92 0l-5.9.02m-3.92 0h-5.9m-3.92 0h-5.9m-3.93 0h-5.9m-3.92 0l-5.9.02m-3.92 0h-5.9m-3.92 0h-5.9m-3.9 0h-2.96l-.84-.08-.8-.23-.54-.27m-2.02-2.18l-.22-.55-.17-.82v-.85l.78-2.96m1.05-3.96l1.58-5.92m1.05-3.96l1.58-5.94m1.05-3.95l1.58-5.94m1.06-3.96l1.58-5.94m1.05-3.95l1.56-5.94m1.05-3.94l1.6-5.94m1.04-3.96l.8-2.96.3-.97.46-.92.4-.58" stroke="#3a414a" stroke-width="2" fill="none"/><path d="M242.96 838.32H250m9.35 0h14.05m9.37 0h13.79m9.04 0h13.57m9.04 0h6.8" stroke="#979ea8" stroke-width="4" fill="none"/><path d="M243 840.32h-2.04v-4H243z" stroke="#979ea8" stroke-width=".05" fill="#979ea8"/><path d="M317.48 848.5l17.22-10.18-17.22-10.18" stroke="#979ea8" stroke-width="4" fill="none"/><path d="M547.02 784a6 6 0 0 1 6-6h148a6 6 0 0 1 6 6v108a6 6 0 0 1-6 6h-148a6 6 0 0 1-6-6z" fill="#c3f7c8"/><path d="M549.73 779l.57-.35.87-.36.9-.23h3m3.96 0H565m3.96 0h5.96m3.97 0h5.95m3.97 0l5.96-.02m3.97 0h5.96m3.98 0h5.95m3.98 0h5.96m3.98 0l5.95-.02m3.96 0h5.96m3.97 0h5.95m3.97 0h5.96m3.97 0l5.96-.02m3.98 0h5.96m3.97 0h5.97m3.97 0h2.98l.94.07.9.22.62.25m2.54 2.16l.35.58.36.87.22.9v2.98m0 3.96v5.94m0 3.96v5.94m0 3.96l.02 5.94m0 3.96v5.95m0 3.96v5.95m0 3.96l.02 5.95m0 3.96v5.96m0 3.96v5.94m0 3.96v5.94m0 3.97v5.94m.02 3.96V892l-.07.94-.22.9-.26.62M704.3 897l-.56.35-.87.36-.9.23h-3m-3.96 0h-5.95m-3.97 0h-5.96m-3.97 0h-5.96m-3.98 0l-5.96.02m-3.97 0h-5.97m-3.97 0h-5.96m-3.97 0h-5.96m-3.97 0l-5.95.02m-3.98 0h-5.95m-3.98 0h-5.95m-4 0h-5.94m-3.97 0l-5.97.02m-3.97 0h-5.96m-3.97 0h-5.96m-3.97 0h-2.98l-.94-.07-.9-.22-.62-.25m-2.54-2.16l-.35-.58-.36-.87-.2-.9v-2.98m0-3.96l-.02-5.94m0-3.96v-5.94m0-3.96v-5.94m0-3.96l-.02-5.95m0-3.96v-5.95m0-3.96v-5.95m0-3.96l-.02-5.96m0-3.96v-5.94m0-3.96v-5.94m0-3.97l-.02-5.94m0-3.96V784l.07-.94.2-.9.27-.62" stroke="#3a414a" stroke-width="2" fill="none"/><path d="M481.37 838h6.1m8.14 0h12.22m8.14 0h12.2m8.15 0h6.12" stroke="#979ea8" stroke-width="4" fill="none"/><path d="M481.42 840h-2.58l1.06-4h1.52z" stroke="#979ea8" stroke-width=".05" fill="#979ea8"/><path d="M524.9 848.18L542.14 838l-17.22-10.18" stroke="#979ea8" stroke-width="4" fill="none"/><path d="M760 784a6 6 0 0 1 6-6h148a6 6 0 0 1 6 6v108a6 6 0 0 1-6 6H766a6 6 0 0 1-6-6zm16-6v120m-16-104h160" fill="#bef"/><path d="M762.7 779l.58-.35.87-.36.9-.23h3m3.96 0h5.97m3.97 0h5.96m3.97 0h5.96m3.97 0l5.96-.02m3.97 0h5.96m3.96 0h5.96m3.97 0h5.94m3.98 0l5.95-.02m3.98 0h5.95m3.98 0h5.95m3.97 0h5.96m3.97 0l5.96-.02m3.96 0h5.96m3.97 0h5.95m3.97 0H914l.94.07.9.22.62.25m2.54 2.16l.35.58.36.87.23.9v2.98m0 3.96v5.94m0 3.96v5.94m0 3.96l.02 5.94m0 3.96v5.95m0 3.96v5.95m0 3.96l.02 5.95m0 3.96v5.96m0 3.96v5.94m0 3.96l.02 5.94m0 3.97v5.94m0 3.96V892l-.07.94-.22.9-.25.62M917.3 897l-.58.35-.87.36-.9.23h-3m-3.96 0h-5.97m-3.97 0h-5.96m-3.97 0h-5.96m-3.97 0l-5.96.02m-3.97 0h-5.96m-3.96 0h-5.96m-3.97 0h-5.94m-3.98 0l-5.95.02m-3.98 0h-5.95m-3.98 0h-5.95m-3.97 0h-5.96m-3.97 0l-5.96.02m-3.96 0h-5.96m-3.97 0h-5.95m-3.97 0H766l-.94-.07-.9-.22-.62-.25M761 895.3l-.35-.58-.36-.87-.23-.9v-2.98m0-3.96v-5.94m0-3.96v-5.94m0-3.96l-.02-5.94m0-3.96v-5.95m0-3.96v-5.95m0-3.96l-.02-5.95m0-3.96v-5.96m0-3.96v-5.94m0-3.96l-.02-5.94m0-3.97v-5.94m0-3.96V784l.07-.94.22-.9.25-.62M776 778v3m0 4v6m0 4v6m0 4v6m0 4v6m0 4v6m0 4v6m0 4v6m0 4v6m0 4v6m0 4v6m0 4v6m0 4v3m-16-104h3m4 0h6m4 0h6m4 0h6m4 0h6m4 0h6m4 0h6m4 0h6m4 0h6m4 0h6m4 0h6m4 0h6m4 0h6m4 0h6m4 0h6m4 0h6m4 0h3" stroke="#3a414a" stroke-width="2" fill="none"/><path d="M709.98 838h6.82m9.08 0h13.62m9.1 0h6.8" stroke="#979ea8" stroke-width="4" fill="none"/><path d="M710.03 840h-2.05v-4h2.05z" stroke="#979ea8" stroke-width=".05" fill="#979ea8"/><path d="M737.9 848.18L755.1 838l-17.2-10.18" stroke="#979ea8" stroke-width="4" fill="none"/><path d="M760 504a6 6 0 0 1 6-6h148a6 6 0 0 1 6 6v108a6 6 0 0 1-6 6H766a6 6 0 0 1-6-6zm16-6v120m-16-104h160" stroke="#3a414a" stroke-width="2" fill="#bef"/><use xlink:href="#l" transform="matrix(1,0,0,1,781,519) translate(38.66666666666667 38.34027777777778)"/><use xlink:href="#m" transform="matrix(1,0,0,1,781,519) translate(37.370370370370374 65.00694444444446)"/><path d="M709.98 558h45.42" stroke="#3a414a" stroke-width="4" fill="none"/><path d="M710.03 560h-2.05v-4h2.05z" stroke="#3a414a" stroke-width=".05" fill="#3a414a"/><path d="M737.9 568.18L755.1 558l-17.2-10.18" stroke="#3a414a" stroke-width="4" fill="none"/><path d="M584.37 129.07l1.1.27 1.02.42.93.57.84.72.7.83.58.94.43 1.02.25 1.06.08 1.06v62.1h-2v-62.02l-.05-.82-.18-.76-.3-.73-.4-.67-.52-.6-.6-.5-.67-.4-.72-.3-.72-.2h-22.26v-2zM416.8 129v2h-1.72l-.82.06-.77.2-.73.3-.67.4-.6.5-.5.6-.4.67-.3.73-.2.73-.06 4.85-2-.03.07-5.08.28-1.1.42-1.02.57-.94.72-.83.82-.72.94-.57 1-.42 1.08-.26L415 129z" stroke="#979ea8" stroke-width=".05" fill="#979ea8"/><path d="M590.3 199.06h-2v-1.03h2z" fill="#979ea8"/><path d="M590.34 199.08h-2.05V198h2.04zm-2-1.02v.97h1.95v-.97z" stroke="#979ea8" stroke-width=".05" fill="#979ea8"/><path d="M409.04 155.3l-4.64-14.26h9.27z" fill="#fff"/><path d="M409.04 158.54l-6-18.5h12zm-3.26-16.5l3.26 10.03 3.26-10.03z" stroke="#979ea8" stroke-width=".05" fill="#979ea8"/><use xlink:href="#u" transform="matrix(1,0,0,1,416.79012345679007,119.33333333333333) translate(0 14.222222222222223)"/><path d="M590.65 776.05v-3m0-4V763m0-4V756l-.08-.94-.22-.9-.25-.62m-2.17-2.54l-.56-.35-.87-.36-.92-.23h-3m-4.02 0h-6.02m-4 0h-6.03m-4 0h-6.02m-4.02 0h-6m-4.03-.02h-6.02m-4 0h-6.02m-4 0h-6.03m-4 0h-6.03m-4.02 0l-6-.02m-4.03 0h-6.02m-4 0h-6.03m-4 0h-6.03m-4.02 0h-6.02m-4.02-.02h-6.02m-4 0h-6.03m-4.02 0h-6.02m-4 0h-3.02l-.94.07-.92.22-.6.25m-2.54 2.16l-.35.58-.37.87-.22.9v3.53m0 4.7l-.04 7.04m0 4.7l-.02 3.52" stroke="#979ea8" stroke-width="2" fill="none"/><path d="M591.65 777.05h-2v-1.02h2z" stroke="#979ea8" stroke-width=".05" fill="#979ea8"/><path d="M409.04 793.8l-4.64-14.26h9.27z" stroke="#979ea8" stroke-width="2" fill="#fff"/><path d="M415.56 469v2h-.48l-.82.06-.77.2-.73.3-.67.4-.6.5-.5.6-.4.67-.3.73-.2.72-.06 22.87h-2l.07-23.1.28-1.1.42-1.03.57-.94.72-.83.82-.72.94-.57 1-.42 1.08-.26L415 469zm166.15.07l1.1.27 1.03.42.94.57.83.72.7.83.6.94.4 1.02.27 1.06.08 1.06v20.1h-2v-20.02l-.07-.82-.18-.76-.3-.73-.4-.67-.52-.6-.6-.5-.66-.4-.73-.3-.73-.2h-20.83v-2z" stroke="#979ea8" stroke-width=".05" fill="#979ea8"/><path d="M587.65 497.06h-2v-1.03h2z" fill="#979ea8"/><path d="M587.67 497.08h-2.05V496h2.05zm-2-1.02v.97h1.95v-.97z" stroke="#979ea8" stroke-width=".05" fill="#979ea8"/><path d="M409.04 513.3l-4.64-14.26h9.27z" fill="#fff"/><path d="M409.04 516.55l-6-18.5h12zm-3.26-16.5l3.26 10.02 3.26-10.03z" stroke="#979ea8" stroke-width=".05" fill="#979ea8"/><use xlink:href="#u" transform="matrix(1,0,0,1,415.5561624300045,459.3333333333333) translate(0 14.222222222222223)"/><path d="M1160 484a6 6 0 0 1 6-6h148a6 6 0 0 1 6 6v148a6 6 0 0 1-6 6h-148a6 6 0 0 1-6-6z" stroke="#3a414a" stroke-width="2" fill="#c3f7c8"/><use xlink:href="#v" transform="matrix(1,0,0,1,1172,490.0069344408722) translate(34.04938271604938 60.27777777777778)"/><use xlink:href="#o" transform="matrix(1,0,0,1,1172,490.0069344408722) translate(36.54938271604939 86.94444444444446)"/><path d="M1035.25 258.1l1.22.3 1.16.47 1.08.65.96.82.82.95.65 1.07.48 1.16.33 1.3.07 241.1.06.7.14.6.24.6.33.52.4.48.48.4.54.33.57.24.53.13 110.08.07v4l-110.56-.07-1.3-.3-1.15-.5-1.08-.65-.96-.82-.82-.95-.65-1.06-.48-1.16-.3-1.23-.1-1.17-.07-240.78-.13-.53-.24-.58-.33-.55-.4-.47-.48-.4-.54-.34-.57-.24-.6-.14-.7-.06H922.95v-4h111.12z" stroke="#3a414a" stroke-width=".05" fill="#3a414a"/><path d="M923 262h-2.04v-4H923z" fill="#3a414a"/><path d="M923.04 262.02h-2.1v-4.04h2.1zm-2.05-4v3.96h2v-3.96zM1159 512l-20.1 11.9-2.05-3.44 14.3-8.46-14.3-8.46 2.04-3.44z" stroke="#3a414a" stroke-width=".05" fill="#3a414a"/><path d="M922.96 558h232.44" stroke="#3a414a" stroke-width="4" fill="none"/><path d="M923 560h-2.04v-4H923z" stroke="#3a414a" stroke-width=".05" fill="#3a414a"/><path d="M1137.9 568.18l17.2-10.18-17.2-10.18" stroke="#3a414a" stroke-width="4" fill="none"/><path d="M922.96 838H929m8.07 0h12.1m8.05 0h12.08m8.06 0h12.1m8.05 0h12.1m8.06 0h12.1m8.05 0h12.1m8.06 0h6.04l.94-.07.9-.22.88-.35.8-.5.72-.6.6-.72.5-.8.37-.88.23-.9v-6.1m0-8.1V806.6m0-8.1v-12.17m0-8.1l.02-12.17m0-8.1v-12.17m0-8.12v-12.16m0-8.1l.02-12.16m0-8.1v-12.17m0-8.12v-12.16m0-8.1l.02-12.16m0-8.1v-12.17m0-8.12V610l.07-.93.22-.92.35-.87.5-.8.6-.72.72-.6.8-.5.88-.36.9-.22h6.04m8.02 0l12.06-.03m8.04 0h12.05m8.04-.02h12.06m8.04-.02h6.02" stroke="#979ea8" stroke-width="4" fill="none"/><path d="M923 840h-2.04v-4H923z" stroke="#979ea8" stroke-width=".05" fill="#979ea8"/><path d="M1137.92 614.2l17.2-10.2-17.2-10.18" stroke="#979ea8" stroke-width="4" fill="none"/><path d="M1075.06 169.07l1.1.27 1.02.42.94.57.83.72.72.83.57.94.42 1.02.26 1.06.08 1.06.07 312.2.18.72.3.73.4.68.52.6.6.5.66.4.73.3.76.2.82.06H1158v2h-72.04l-1.06-.08-1.06-.26-1.02-.42-.94-.58-.83-.7-.72-.84-.57-.94-.42-1.02-.27-1.1-.07-312.36-.06-.82-.2-.76-.3-.73-.4-.67-.5-.6-.6-.5-.67-.4-.73-.3-.72-.2-266.1-.03v-2zm-433.1-.07v2h-3.9l-.82.06-.76.2-.73.3-.67.4-.6.5-.5.6-.4.67-.3.73-.2.73-.06 5.35-2-.03.07-5.58.26-1.1.42-1.02.57-.94.72-.83.83-.72.94-.57 1.02-.42 1.06-.26 1.06-.08z" stroke="#979ea8" stroke-width=".05" fill="#979ea8"/><path d="M1159 494.34H1158v-2h1.02z" fill="#979ea8"/><path d="M1159.03 494.36h-1.08v-2.05h1.08zm-1.03-2v1.95h.98v-1.94z" stroke="#979ea8" stroke-width=".05" fill="#979ea8"/><path d="M632.02 195.8l-4.64-14.27h9.27z" fill="#fff"/><path d="M632.02 199.04l-6-18.5h12zm-3.26-16.5l3.26 10.02 3.26-10.03z" stroke="#979ea8" stroke-width=".05" fill="#979ea8"/><use xlink:href="#w" transform="matrix(1,0,0,1,641.9506172839506,159.33333333333334) translate(0 14.222222222222223)"/><path d="M1158.05 584H1155m-4.05 0h-6.1m-4.05 0h-6.1m-4.05 0h-6.08m-4.06 0h-6.08m-4.06 0h-6.1m-4.04 0h-6.1m-4.05 0h-6.1m-4.05 0h-6.1m-4.04 0h-6.1m-4.05 0h-6.1m-4.05 0h-6.08m-4.06 0h-6.1m-4.05 0h-6.1m-4.06 0H1016l-.94.07-.9.22-.62.25m-2.54 2.16l-.35.58-.36.87-.23.9v3.1m0 4.14v6.2m0 4.12v6.2m0 4.13v6.2m0 4.13l-.02 6.2m0 4.13v6.2m0 4.14v6.2m0 4.13v6.2m0 4.13l-.02 6.2m0 4.13v6.2m0 4.12v6.2m0 4.13v6.2m0 4.13l-.02 6.2m0 4.14v6.2m0 4.13v6.2m0 4.13v3.1l-.07.94-.22.9-.25.62m-2.16 2.54l-.58.35-.87.36-.9.23h-3.03m-4.02 0h-6.03m-4.02 0h-6.03m-4.02 0h-6.03m-4.02 0h-6.03m-4.03 0h-6.04m-4.02 0h-6.03m-4 0h-6.04m-4.02 0h-6.03m-4 0h-6.04m-4.02.02h-6.04m-4.02 0h-6.03m-4.02 0h-6.03m-4.02 0h-6.03m-4.02 0h-6.03m-4.02 0h-6.04m-4.02 0h-6.03m-4.03 0h-6.03m-4.02 0H821m-4.03 0h-6.03m-4.02.02h-6.03m-4.04 0h-6.03m-4.02 0h-6.02m-4.02 0h-6.03m-4.02 0h-6.02m-4.02 0h-6.03m-4.02 0h-6.03m-4.02 0h-6.03m-4.02 0h-6.03m-4.02 0h-6.03m-4.02.02h-6.03m-4.02 0h-6.04m-4 0h-6.04m-4.02 0h-6.03m-4 0h-6.04m-4.02 0h-6.03m-4 0h-6.04m-4.03 0h-3l-.95.07-.9.22-.62.25m-2.54 2.16l-.35.58-.36.87-.2.9-.08 3.48" stroke="#979ea8" stroke-width="2" fill="none"/><path d="M1159.05 585h-1.03v-2h1.03z" stroke="#979ea8" stroke-width=".05" fill="#979ea8"/><path d="M627.02 773.8l-4.64-14.27h9.27z" stroke="#979ea8" stroke-width="2" fill="#fff"/><path d="M995.06 469.07l1.1.27 1.02.42.94.57.83.72.72.83.57.94.42 1.02.26 1.06.08 1.06.07 53.53.18.7.3.74.4.67.52.6.6.5.66.42.73.3.76.2.82.05h152v2h-152.08l-1.06-.08-1.06-.27-1.02-.42-.94-.56-.83-.72-.72-.83-.57-.95-.42-1.02-.27-1.1-.07-53.7-.06-.8-.2-.77-.3-.73-.4-.67-.5-.6-.6-.5-.67-.4-.73-.3-.72-.2-190.1-.02v-2zm-357.1-.07v2h-4.9l-.82.06-.76.2-.73.3-.67.4-.6.5-.5.6-.4.67-.3.73-.2.73-.06 3.36-2-.05.08-3.57.26-1.1.42-1 .57-.95.72-.83.83-.72.94-.57 1.02-.42 1.06-.26 1.06-.08z" stroke="#979ea8" stroke-width=".05" fill="#979ea8"/><path d="M1159.03 535.67H1158v-2h1.02z" fill="#979ea8"/><path d="M1159.05 535.7h-1.08v-2.06h1.08zm-1.03-2v1.94h.98v-1.95z" stroke="#979ea8" stroke-width=".05" fill="#979ea8"/><path d="M627.02 493.8l-4.64-14.27h9.27z" fill="#fff"/><path d="M627.02 497.04l-6-18.5h12zm-3.26-16.5l3.26 10.02 3.26-10.03z" stroke="#979ea8" stroke-width=".05" fill="#979ea8"/><use xlink:href="#x" transform="matrix(1,0,0,1,637.9506172839506,459.3333333333333) translate(0 14.222222222222223)"/><path d="M1179.8 325.8a7.8 7.8 0 0 1 7.53-5.8H1314a4.6 4.6 0 0 1 4.45 5.8l-18.24 68.4a7.8 7.8 0 0 1-7.53 5.8H1166a4.6 4.6 0 0 1-4.45-5.8z" stroke="#3a414a" stroke-width="3" fill="#c3f7c8"/><use xlink:href="#y" transform="matrix(1,0,0,1,1165,325) translate(58.165493827160496 26.52777777777778)"/><use xlink:href="#z" transform="matrix(1,0,0,1,1165,325) translate(40.70253086419753 53.19444444444445)"/><path d="M1189.18 85.3A10 10 0 0 1 1198 80h84a10 10 0 0 1 8.82 5.3l26.36 49.4a11.25 11.25 0 0 1 0 10.6l-26.36 49.4a10 10 0 0 1-8.82 5.3h-84a10 10 0 0 1-8.82-5.3l-26.36-49.4a11.25 11.25 0 0 1 0-10.6z" stroke="#3a414a" stroke-width="2" fill="#fff7a1"/><use xlink:href="#A" transform="matrix(1,0,0,1,1165,85) translate(49.1408024691358 45.27777777777778)"/><use xlink:href="#B" transform="matrix(1,0,0,1,1165,85) translate(33.739567901234565 71.94444444444446)"/><path d="M1241 458.54h-2v-3.16h2zm0-45.83h-2v-10.24h2z" stroke="#e81313" stroke-width=".05" fill="#e81313"/><path d="M1241 402.5h-2v-1.04h2z" fill="#e81313"/><path d="M1241.03 402.5h-2.06v-1.06h2.06zm-2-1v.96h1.94v-.97z" stroke="#e81313" stroke-width=".05" fill="#e81313"/><path d="M1240 473.8l-4.64-14.26h9.28z" fill="#e81313"/><path d="M1240 477.04l-6-18.5h12zm-3.26-16.5l3.26 10.03 3.26-10.03z" stroke="#e81313" stroke-width=".05" fill="#e81313"/><use xlink:href="#C" transform="matrix(1,0,0,1,1200.0740740740741,412.71135935376833) translate(7.8321604938271605 14.222222222222223)"/><use xlink:href="#D" transform="matrix(1,0,0,1,1200.0740740740741,412.71135935376833) translate(0.005000000000002558 35.55555555555556)"/><use xlink:href="#E" transform="matrix(1,0,0,1,1200.0740740740741,412.71135935376833) translate(37.48648148148149 35.55555555555556)"/><path d="M1241 300.04h-2V244h2zm0-77.37h-2v-20.7h2z" stroke="#e81313" stroke-width=".05" fill="#e81313"/><path d="M1241 202h-2v-1.03h2z" fill="#e81313"/><path d="M1241.03 202.02h-2.06v-1.07h2.06zm-2-1.02v.97h1.94V201z" stroke="#e81313" stroke-width=".05" fill="#e81313"/><path d="M1240 315.3l-4.64-14.26h9.28z" fill="#e81313"/><path d="M1240 318.54l-6-18.5h12zm-3.26-16.5l3.26 10.03 3.26-10.03z" stroke="#e81313" stroke-width=".05" fill="#e81313"/><use xlink:href="#F" transform="matrix(1,0,0,1,1158.888888888889,222.66666666666669) translate(0 14.222222222222223)"/><use xlink:href="#G" transform="matrix(1,0,0,1,1158.888888888889,222.66666666666669) translate(51.90123456790124 14.222222222222223)"/><use xlink:href="#H" transform="matrix(1,0,0,1,1158.888888888889,222.66666666666669) translate(110.07407407407408 14.222222222222223)"/><path d="M1400 373a6 6 0 0 1 6-6h148a6 6 0 0 1 6 6v108a6 6 0 0 1-6 6h-148a6 6 0 0 1-6-6zm16-6v120m-16-104h160" stroke="#3a414a" stroke-width="3" fill="#bef"/><use xlink:href="#I" transform="matrix(1,0,0,1,1421,388.0069344408722) translate(28.851851851851855 23.65277777777778)"/><use xlink:href="#J" transform="matrix(1,0,0,1,1421,388.0069344408722) translate(36.135802469135804 50.31944444444445)"/><use xlink:href="#K" transform="matrix(1,0,0,1,1421,388.0069344408722) translate(28.851851851851855 76.98611111111111)"/><path d="M1322.95 521.34h30.8a6 6 0 0 0 6-6v-75.6a6 6 0 0 1 6-6h29.15" stroke="#3a414a" stroke-width="4" fill="none"/><path d="M1323 523.34h-2.05v-4h2.05z" stroke="#3a414a" stroke-width=".05" fill="#3a414a"/><path d="M1377.4 443.93l17.2-10.18-17.2-10.18" stroke="#3a414a" stroke-width="4" fill="none"/><path d="M1400 626a6 6 0 0 1 6-6h148a6 6 0 0 1 6 6v108a6 6 0 0 1-6 6h-148a6 6 0 0 1-6-6zm16-6v120m-16-104h160" stroke="#3a414a" stroke-width="3" fill="#bef"/><g><use xlink:href="#L" transform="matrix(1,0,0,1,1421,641) translate(28.851851851851855 23.65277777777778)"/><use xlink:href="#J" transform="matrix(1,0,0,1,1421,641) translate(36.135802469135804 50.31944444444445)"/><use xlink:href="#K" transform="matrix(1,0,0,1,1421,641) translate(28.851851851851855 76.98611111111111)"/></g><path d="M1323 602.45h30.76a6 6 0 0 1 6 6V674a6 6 0 0 0 6 6h29.14" stroke="#3a414a" stroke-width="4" fill="none"/><path d="M1323.04 604.45H1321l-.02-4h2.06z" stroke="#3a414a" stroke-width=".05" fill="#3a414a"/><path d="M1377.4 690.18l17.2-10.18-17.2-10.18" stroke="#3a414a" stroke-width="4" fill="none"/><path d="M1680 373a6 6 0 0 1 6-6h148a6 6 0 0 1 6 6v108a6 6 0 0 1-6 6h-148a6 6 0 0 1-6-6z" stroke="#3a414a" stroke-width="2" fill="#c3f7c8"/><g><use xlink:href="#M" transform="matrix(1,0,0,1,1692,379) translate(37.81481481481482 38.77777777777778)"/><use xlink:href="#o" transform="matrix(1,0,0,1,1692,379) translate(36.54938271604939 65.44444444444446)"/></g><path d="M1680 624a6 6 0 0 1 6-6h148a6 6 0 0 1 6 6v108a6 6 0 0 1-6 6h-148a6 6 0 0 1-6-6z" stroke="#3a414a" stroke-width="2" fill="#c3f7c8"/><g><use xlink:href="#M" transform="matrix(1,0,0,1,1692,630) translate(37.81481481481482 38.77777777777778)"/><use xlink:href="#o" transform="matrix(1,0,0,1,1692,630) translate(36.54938271604939 65.44444444444446)"/></g><path d="M1563.46 427h111.94" stroke="#3a414a" stroke-width="4" fill="none"/><path d="M1563.5 429h-2.04v-4h2.05z" stroke="#3a414a" stroke-width=".05" fill="#3a414a"/><path d="M1657.9 437.2l17.2-10.2-17.2-10.17" stroke="#3a414a" stroke-width="4" fill="none"/><path d="M1949.18 372.3a10 10 0 0 1 8.82-5.3h106c8.84 0 16 26.86 16 60s-7.16 60-16 60h-106a10 10 0 0 1-8.82-5.3l-26.36-49.4a11.25 11.25 0 0 1 0-10.6z" stroke="#3a414a" stroke-width="4" fill="#cee"/><g><use xlink:href="#N" transform="matrix(1,0,0,1,1925,372) translate(38.35685185185185 59.02777777777778)"/></g><path d="M1949.18 623.3a10 10 0 0 1 8.82-5.3h106c8.84 0 16 26.86 16 60 0 33.13-7.16 60-16 60h-106a10 10 0 0 1-8.82-5.3l-26.36-49.4a11.25 11.25 0 0 1 0-10.6z" stroke="#3a414a" stroke-width="4" fill="#cee"/><g><use xlink:href="#O" transform="matrix(1,0,0,1,1925,622.9930655591278) translate(38.35685185185185 59.02777777777778)"/></g><path d="M1563.46 680h111.94" stroke="#3a414a" stroke-width="4" fill="none"/><path d="M1563.5 682h-2.04v-4h2.05z" stroke="#3a414a" stroke-width=".05" fill="#3a414a"/><path d="M1657.9 690.18l17.2-10.18-17.2-10.18M1842.96 427h72.9" stroke="#3a414a" stroke-width="4" fill="none"/><path d="M1843 429h-2.04v-4h2.05z" stroke="#3a414a" stroke-width=".05" fill="#3a414a"/><path d="M1898.35 437.18l17.22-10.18-17.22-10.18M1842.96 678h72.9" stroke="#3a414a" stroke-width="4" fill="none"/><path d="M1843 680h-2.04v-4h2.05z" stroke="#3a414a" stroke-width=".05" fill="#3a414a"/><path d="M1898.35 688.18l17.22-10.18-17.22-10.18" stroke="#3a414a" stroke-width="4" fill="none"/><defs><path fill="#3a414a" d="M121-226c-27-7-43 5-38 36h38v33H83V0H34v-157H6v-33h28c-9-59 32-81 87-68v32" id="P"/><path fill="#3a414a" d="M135-150c-39-12-60 13-60 57V0H25l-1-190h47c2 13-1 29 3 40 6-28 27-53 61-41v41" id="Q"/><path fill="#3a414a" d="M133-34C117-15 103 5 69 4 32 3 11-16 11-54c-1-60 55-63 116-61 1-26-3-47-28-47-18 1-26 9-28 27l-52-2c7-38 36-58 82-57s74 22 75 68l1 82c-1 14 12 18 25 15v27c-30 8-71 5-69-32zm-48 3c29 0 43-24 42-57-32 0-66-3-65 30 0 17 8 27 23 27" id="R"/><path fill="#3a414a" d="M220-157c-53 9-28 100-34 157h-49v-107c1-27-5-49-29-50C55-147 81-57 75 0H25l-1-190h47c2 12-1 28 3 38 10-53 101-56 108 0 13-22 24-43 59-42 82 1 51 116 57 194h-49v-107c-1-25-5-48-29-50" id="S"/><path fill="#3a414a" d="M185-48c-13 30-37 53-82 52C43 2 14-33 14-96s30-98 90-98c62 0 83 45 84 108H66c0 31 8 55 39 56 18 0 30-7 34-22zm-45-69c5-46-57-63-70-21-2 6-4 13-4 21h74" id="T"/><g id="a"><use transform="matrix(0.06172839506172839,0,0,0.06172839506172839,0,0)" xlink:href="#P"/><use transform="matrix(0.06172839506172839,0,0,0.06172839506172839,7.345679012345679,0)" xlink:href="#Q"/><use transform="matrix(0.06172839506172839,0,0,0.06172839506172839,15.987654320987653,0)" xlink:href="#R"/><use transform="matrix(0.06172839506172839,0,0,0.06172839506172839,28.333333333333332,0)" xlink:href="#S"/><use transform="matrix(0.06172839506172839,0,0,0.06172839506172839,48.08641975308642,0)" xlink:href="#T"/></g><path fill="#3a414a" d="M25 0v-261h50V0H25" id="U"/><path fill="#3a414a" d="M110-194c64 0 96 36 96 99 0 64-35 99-97 99-61 0-95-36-95-99 0-62 34-99 96-99zm-1 164c35 0 45-28 45-65 0-40-10-65-43-65-34 0-45 26-45 65 0 36 10 65 43 65" id="V"/><path fill="#3a414a" d="M88-194c31-1 46 15 58 34l-1-101h50l1 261h-48c-2-10 0-23-3-31C134-8 116 4 84 4 32 4 16-41 15-95c0-56 19-97 73-99zm17 164c33 0 40-30 41-66 1-37-9-64-41-64s-38 30-39 65c0 43 13 65 39 65" id="W"/><g id="b"><use transform="matrix(0.06172839506172839,0,0,0.06172839506172839,0,0)" xlink:href="#U"/><use transform="matrix(0.06172839506172839,0,0,0.06172839506172839,6.172839506172839,0)" xlink:href="#V"/><use transform="matrix(0.06172839506172839,0,0,0.06172839506172839,19.691358024691358,0)" xlink:href="#R"/><use transform="matrix(0.06172839506172839,0,0,0.06172839506172839,32.03703703703704,0)" xlink:href="#W"/><use transform="matrix(0.06172839506172839,0,0,0.06172839506172839,45.55555555555556,0)" xlink:href="#T"/><use transform="matrix(0.06172839506172839,0,0,0.06172839506172839,57.901234567901234,0)" xlink:href="#Q"/></g><path fill="#3a414a" d="M135-194c53 0 70 44 70 98 0 56-19 98-73 100-31 1-45-17-59-34 3 33 2 69 2 105H25l-1-265h48c2 10 0 23 3 31 11-24 29-35 60-35zM114-30c33 0 39-31 40-66 0-38-9-64-40-64-56 0-55 130 0 130" id="X"/><path fill="#3a414a" d="M123 10C108 53 80 86 19 72V37c35 8 53-11 59-39L3-190h52l48 148c12-52 28-100 44-148h51" id="Y"/><g id="c"><use transform="matrix(0.06172839506172839,0,0,0.06172839506172839,0,0)" xlink:href="#X"/><use transform="matrix(0.06172839506172839,0,0,0.06172839506172839,13.518518518518517,0)" xlink:href="#U"/><use transform="matrix(0.06172839506172839,0,0,0.06172839506172839,19.691358024691358,0)" xlink:href="#R"/><use transform="matrix(0.06172839506172839,0,0,0.06172839506172839,32.03703703703704,0)" xlink:href="#Y"/><use transform="matrix(0.06172839506172839,0,0,0.06172839506172839,44.382716049382715,0)" xlink:href="#T"/><use transform="matrix(0.06172839506172839,0,0,0.06172839506172839,56.72839506172839,0)" xlink:href="#Q"/></g><path fill="#3a414a" d="M137-138c1-29-70-34-71-4 15 46 118 7 119 86 1 83-164 76-172 9l43-7c4 19 20 25 44 25 33 8 57-30 24-41C81-84 22-81 20-136c-2-80 154-74 161-7" id="Z"/><path fill="#3a414a" d="M190-63c-7 42-38 67-86 67-59 0-84-38-90-98-12-110 154-137 174-36l-49 2c-2-19-15-32-35-32-30 0-35 28-38 64-6 74 65 87 74 30" id="aa"/><path fill="#3a414a" d="M25-224v-37h50v37H25zM25 0v-190h50V0H25" id="ab"/><path fill="#3a414a" d="M115-3C79 11 28 4 28-45v-112H4v-33h27l15-45h31v45h36v33H77v99c-1 23 16 31 38 25v30" id="ac"/><g id="d"><use transform="matrix(0.06172839506172839,0,0,0.06172839506172839,0,0)" xlink:href="#Z"/><use transform="matrix(0.06172839506172839,0,0,0.06172839506172839,12.345679012345679,0)" xlink:href="#aa"/><use transform="matrix(0.06172839506172839,0,0,0.06172839506172839,24.691358024691358,0)" xlink:href="#Q"/><use transform="matrix(0.06172839506172839,0,0,0.06172839506172839,33.33333333333333,0)" xlink:href="#ab"/><use transform="matrix(0.06172839506172839,0,0,0.06172839506172839,39.50617283950617,0)" xlink:href="#X"/><use transform="matrix(0.06172839506172839,0,0,0.06172839506172839,53.02469135802469,0)" xlink:href="#ac"/></g><path fill="#3a414a" d="M85 4C-2 5 27-109 22-190h50c7 57-23 150 33 157 60-5 35-97 40-157h50l1 190h-47c-2-12 1-28-3-38-12 25-28 42-61 42" id="ad"/><path fill="#3a414a" d="M135-194c87-1 58 113 63 194h-50c-7-57 23-157-34-157-59 0-34 97-39 157H25l-1-190h47c2 12-1 28 3 38 12-26 28-41 61-42" id="ae"/><g id="e"><use transform="matrix(0.06172839506172839,0,0,0.06172839506172839,0,0)" xlink:href="#Q"/><use transform="matrix(0.06172839506172839,0,0,0.06172839506172839,8.641975308641975,0)" xlink:href="#ad"/><use transform="matrix(0.06172839506172839,0,0,0.06172839506172839,22.160493827160494,0)" xlink:href="#ae"/><use transform="matrix(0.06172839506172839,0,0,0.06172839506172839,35.67901234567901,0)" xlink:href="#ae"/><use transform="matrix(0.06172839506172839,0,0,0.06172839506172839,49.19753086419753,0)" xlink:href="#T"/><use transform="matrix(0.06172839506172839,0,0,0.06172839506172839,61.54320987654321,0)" xlink:href="#Q"/></g><path fill="#3a414a" d="M210-169c-67 3-38 105-44 169h-31v-121c0-29-5-50-35-48C34-165 62-65 56 0H25l-1-190h30c1 10-1 24 2 32 10-44 99-50 107 0 11-21 27-35 58-36 85-2 47 119 55 194h-31v-121c0-29-5-49-35-48" id="af"/><path fill="#3a414a" d="M100-194c63 0 86 42 84 106H49c0 40 14 67 53 68 26 1 43-12 49-29l28 8c-11 28-37 45-77 45C44 4 14-33 15-96c1-61 26-98 85-98zm52 81c6-60-76-77-97-28-3 7-6 17-6 28h103" id="ag"/><path fill="#3a414a" d="M85-194c31 0 48 13 60 33l-1-100h32l1 261h-30c-2-10 0-23-3-31C134-8 116 4 85 4 32 4 16-35 15-94c0-66 23-100 70-100zm9 24c-40 0-46 34-46 75 0 40 6 74 45 74 42 0 51-32 51-76 0-42-9-74-50-73" id="ah"/><path fill="#3a414a" d="M24-231v-30h32v30H24zM24 0v-190h32V0H24" id="ai"/><path fill="#3a414a" d="M141-36C126-15 110 5 73 4 37 3 15-17 15-53c-1-64 63-63 125-63 3-35-9-54-41-54-24 1-41 7-42 31l-33-3c5-37 33-52 76-52 45 0 72 20 72 64v82c-1 20 7 32 28 27v20c-31 9-61-2-59-35zM48-53c0 20 12 33 32 33 41-3 63-29 60-74-43 2-92-5-92 41" id="aj"/><g id="f"><use transform="matrix(0.06172839506172839,0,0,0.06172839506172839,0,0)" xlink:href="#af"/><use transform="matrix(0.06172839506172839,0,0,0.06172839506172839,18.456790123456788,0)" xlink:href="#ag"/><use transform="matrix(0.06172839506172839,0,0,0.06172839506172839,30.80246913580247,0)" xlink:href="#ah"/><use transform="matrix(0.06172839506172839,0,0,0.06172839506172839,43.148148148148145,0)" xlink:href="#ai"/><use transform="matrix(0.06172839506172839,0,0,0.06172839506172839,48.02469135802469,0)" xlink:href="#aj"/></g><path fill="#3a414a" d="M101-234c-31-9-42 10-38 44h38v23H63V0H32v-167H5v-23h27c-7-52 17-82 69-68v24" id="ak"/><path fill="#3a414a" d="M24 0v-261h32V0H24" id="al"/><g id="g"><use transform="matrix(0.06172839506172839,0,0,0.06172839506172839,0,0)" xlink:href="#ak"/><use transform="matrix(0.06172839506172839,0,0,0.06172839506172839,6.172839506172839,0)" xlink:href="#ai"/><use transform="matrix(0.06172839506172839,0,0,0.06172839506172839,11.049382716049383,0)" xlink:href="#al"/><use transform="matrix(0.06172839506172839,0,0,0.06172839506172839,15.925925925925926,0)" xlink:href="#ag"/></g><path fill="#3a414a" d="M117-194c89-4 53 116 60 194h-32v-121c0-31-8-49-39-48C34-167 62-67 57 0H25l-1-190h30c1 10-1 24 2 32 11-22 29-35 61-36" id="am"/><path fill="#3a414a" d="M100-194c62-1 85 37 85 99 1 63-27 99-86 99S16-35 15-95c0-66 28-99 85-99zM99-20c44 1 53-31 53-75 0-43-8-75-51-75s-53 32-53 75 10 74 51 75" id="an"/><path fill="#3a414a" d="M59-47c-2 24 18 29 38 22v24C64 9 27 4 27-40v-127H5v-23h24l9-43h21v43h35v23H59v120" id="ao"/><path fill="#3a414a" d="M106-169C34-169 62-67 57 0H25v-261h32l-1 103c12-21 28-36 61-36 89 0 53 116 60 194h-32v-121c2-32-8-49-39-48" id="ap"/><path fill="#3a414a" d="M114-163C36-179 61-72 57 0H25l-1-190h30c1 12-1 29 2 39 6-27 23-49 58-41v29" id="aq"/><g id="h"><use transform="matrix(0.06172839506172839,0,0,0.06172839506172839,0,0)" xlink:href="#aj"/><use transform="matrix(0.06172839506172839,0,0,0.06172839506172839,12.345679012345679,0)" xlink:href="#am"/><use transform="matrix(0.06172839506172839,0,0,0.06172839506172839,24.691358024691358,0)" xlink:href="#an"/><use transform="matrix(0.06172839506172839,0,0,0.06172839506172839,37.03703703703704,0)" xlink:href="#ao"/><use transform="matrix(0.06172839506172839,0,0,0.06172839506172839,43.20987654320988,0)" xlink:href="#ap"/><use transform="matrix(0.06172839506172839,0,0,0.06172839506172839,55.55555555555556,0)" xlink:href="#ag"/><use transform="matrix(0.06172839506172839,0,0,0.06172839506172839,67.90123456790124,0)" xlink:href="#aq"/></g><path fill="#3a414a" d="M96-169c-40 0-48 33-48 73s9 75 48 75c24 0 41-14 43-38l32 2c-6 37-31 61-74 61-59 0-76-41-82-99-10-93 101-131 147-64 4 7 5 14 7 22l-32 3c-4-21-16-35-41-35" id="ar"/><g id="i"><use transform="matrix(0.06172839506172839,0,0,0.06172839506172839,0,0)" xlink:href="#ah"/><use transform="matrix(0.06172839506172839,0,0,0.06172839506172839,12.345679012345679,0)" xlink:href="#ag"/><use transform="matrix(0.06172839506172839,0,0,0.06172839506172839,24.691358024691358,0)" xlink:href="#ar"/><use transform="matrix(0.06172839506172839,0,0,0.06172839506172839,35.80246913580247,0)" xlink:href="#an"/><use transform="matrix(0.06172839506172839,0,0,0.06172839506172839,48.148148148148145,0)" xlink:href="#ah"/><use transform="matrix(0.06172839506172839,0,0,0.06172839506172839,60.49382716049382,0)" xlink:href="#ag"/><use transform="matrix(0.06172839506172839,0,0,0.06172839506172839,72.8395061728395,0)" xlink:href="#aq"/></g><path fill="#3a414a" d="M33 0v-38h34V0H33" id="as"/><g id="j"><use transform="matrix(0.06172839506172839,0,0,0.06172839506172839,0,0)" xlink:href="#as"/><use transform="matrix(0.06172839506172839,0,0,0.06172839506172839,6.172839506172839,0)" xlink:href="#as"/><use transform="matrix(0.06172839506172839,0,0,0.06172839506172839,12.345679012345679,0)" xlink:href="#as"/><use transform="matrix(0.06172839506172839,0,0,0.06172839506172839,18.51851851851852,0)" xlink:href="#af"/><use transform="matrix(0.06172839506172839,0,0,0.06172839506172839,36.9753086419753,0)" xlink:href="#an"/><use transform="matrix(0.06172839506172839,0,0,0.06172839506172839,49.32098765432098,0)" xlink:href="#aq"/><use transform="matrix(0.06172839506172839,0,0,0.06172839506172839,56.66666666666666,0)" xlink:href="#ag"/><use transform="matrix(0.06172839506172839,0,0,0.06172839506172839,69.01234567901234,0)" xlink:href="#as"/><use transform="matrix(0.06172839506172839,0,0,0.06172839506172839,75.18518518518518,0)" xlink:href="#as"/><use transform="matrix(0.06172839506172839,0,0,0.06172839506172839,81.35802469135801,0)" xlink:href="#as"/></g><path fill="#3a414a" d="M87 75C49 33 22-17 22-94c0-76 28-126 65-167h31c-38 41-64 92-64 168S80 34 118 75H87" id="at"/><path fill="#3a414a" d="M135-143c-3-34-86-38-87 0 15 53 115 12 119 90S17 21 10-45l28-5c4 36 97 45 98 0-10-56-113-15-118-90-4-57 82-63 122-42 12 7 21 19 24 35" id="au"/><path fill="#3a414a" d="M33-261c38 41 65 92 65 168S71 34 33 75H2C39 34 66-17 66-93S39-220 2-261h31" id="av"/><g id="k"><use transform="matrix(0.06172839506172839,0,0,0.06172839506172839,0,0)" xlink:href="#ah"/><use transform="matrix(0.06172839506172839,0,0,0.06172839506172839,12.345679012345679,0)" xlink:href="#ag"/><use transform="matrix(0.06172839506172839,0,0,0.06172839506172839,24.691358024691358,0)" xlink:href="#ar"/><use transform="matrix(0.06172839506172839,0,0,0.06172839506172839,35.80246913580247,0)" xlink:href="#an"/><use transform="matrix(0.06172839506172839,0,0,0.06172839506172839,48.148148148148145,0)" xlink:href="#ah"/><use transform="matrix(0.06172839506172839,0,0,0.06172839506172839,60.49382716049382,0)" xlink:href="#ag"/><use transform="matrix(0.06172839506172839,0,0,0.06172839506172839,72.8395061728395,0)" xlink:href="#aq"/><use transform="matrix(0.06172839506172839,0,0,0.06172839506172839,80.18518518518519,0)" xlink:href="#at"/><use transform="matrix(0.06172839506172839,0,0,0.06172839506172839,87.53086419753087,0)" xlink:href="#au"/><use transform="matrix(0.06172839506172839,0,0,0.06172839506172839,98.64197530864199,0)" xlink:href="#av"/></g><g id="l"><use transform="matrix(0.06172839506172839,0,0,0.06172839506172839,0,0)" xlink:href="#ak"/><use transform="matrix(0.06172839506172839,0,0,0.06172839506172839,6.172839506172839,0)" xlink:href="#aq"/><use transform="matrix(0.06172839506172839,0,0,0.06172839506172839,13.518518518518519,0)" xlink:href="#aj"/><use transform="matrix(0.06172839506172839,0,0,0.06172839506172839,25.864197530864196,0)" xlink:href="#af"/><use transform="matrix(0.06172839506172839,0,0,0.06172839506172839,44.32098765432099,0)" xlink:href="#ag"/></g><g id="m"><use transform="matrix(0.06172839506172839,0,0,0.06172839506172839,0,0)" xlink:href="#ar"/><use transform="matrix(0.06172839506172839,0,0,0.06172839506172839,11.11111111111111,0)" xlink:href="#aj"/><use transform="matrix(0.06172839506172839,0,0,0.06172839506172839,23.45679012345679,0)" xlink:href="#ar"/><use transform="matrix(0.06172839506172839,0,0,0.06172839506172839,34.5679012345679,0)" xlink:href="#ap"/><use transform="matrix(0.06172839506172839,0,0,0.06172839506172839,46.913580246913575,0)" xlink:href="#ag"/></g><g id="n"><use transform="matrix(0.06172839506172839,0,0,0.06172839506172839,0,0)" xlink:href="#al"/><use transform="matrix(0.06172839506172839,0,0,0.06172839506172839,4.876543209876543,0)" xlink:href="#an"/><use transform="matrix(0.06172839506172839,0,0,0.06172839506172839,17.22222222222222,0)" xlink:href="#aj"/><use transform="matrix(0.06172839506172839,0,0,0.06172839506172839,29.5679012345679,0)" xlink:href="#ah"/><use transform="matrix(0.06172839506172839,0,0,0.06172839506172839,41.913580246913575,0)" xlink:href="#ag"/><use transform="matrix(0.06172839506172839,0,0,0.06172839506172839,54.25925925925925,0)" xlink:href="#aq"/></g><g id="o"><use transform="matrix(0.06172839506172839,0,0,0.06172839506172839,0,0)" xlink:href="#ao"/><use transform="matrix(0.06172839506172839,0,0,0.06172839506172839,6.172839506172839,0)" xlink:href="#ap"/><use transform="matrix(0.06172839506172839,0,0,0.06172839506172839,18.51851851851852,0)" xlink:href="#aq"/><use transform="matrix(0.06172839506172839,0,0,0.06172839506172839,25.864197530864196,0)" xlink:href="#ag"/><use transform="matrix(0.06172839506172839,0,0,0.06172839506172839,38.20987654320987,0)" xlink:href="#aj"/><use transform="matrix(0.06172839506172839,0,0,0.06172839506172839,50.55555555555555,0)" xlink:href="#ah"/></g><path fill="#3a414a" d="M24 0v-54h51V0H24" id="aw"/><g id="p"><use transform="matrix(0.06172839506172839,0,0,0.06172839506172839,0,0)" xlink:href="#aw"/><use transform="matrix(0.06172839506172839,0,0,0.06172839506172839,6.172839506172839,0)" xlink:href="#aw"/><use transform="matrix(0.06172839506172839,0,0,0.06172839506172839,12.345679012345679,0)" xlink:href="#aw"/><use transform="matrix(0.06172839506172839,0,0,0.06172839506172839,18.51851851851852,0)" xlink:href="#S"/><use transform="matrix(0.06172839506172839,0,0,0.06172839506172839,38.27160493827161,0)" xlink:href="#V"/><use transform="matrix(0.06172839506172839,0,0,0.06172839506172839,51.79012345679013,0)" xlink:href="#Q"/><use transform="matrix(0.06172839506172839,0,0,0.06172839506172839,60.4320987654321,0)" xlink:href="#T"/></g><g id="q"><use transform="matrix(0.06172839506172839,0,0,0.06172839506172839,0,0)" xlink:href="#P"/><use transform="matrix(0.06172839506172839,0,0,0.06172839506172839,7.345679012345679,0)" xlink:href="#Q"/><use transform="matrix(0.06172839506172839,0,0,0.06172839506172839,15.987654320987653,0)" xlink:href="#R"/><use transform="matrix(0.06172839506172839,0,0,0.06172839506172839,28.333333333333332,0)" xlink:href="#S"/><use transform="matrix(0.06172839506172839,0,0,0.06172839506172839,48.08641975308642,0)" xlink:href="#T"/></g><g id="r"><use transform="matrix(0.06172839506172839,0,0,0.06172839506172839,0,0)" xlink:href="#U"/><use transform="matrix(0.06172839506172839,0,0,0.06172839506172839,6.172839506172839,0)" xlink:href="#V"/><use transform="matrix(0.06172839506172839,0,0,0.06172839506172839,19.691358024691358,0)" xlink:href="#R"/><use transform="matrix(0.06172839506172839,0,0,0.06172839506172839,32.03703703703704,0)" xlink:href="#W"/><use transform="matrix(0.06172839506172839,0,0,0.06172839506172839,45.55555555555556,0)" xlink:href="#T"/><use transform="matrix(0.06172839506172839,0,0,0.06172839506172839,57.901234567901234,0)" xlink:href="#Q"/><use transform="matrix(0.06172839506172839,0,0,0.06172839506172839,66.54320987654322,0)" xlink:href="#Z"/><use transform="matrix(0.06172839506172839,0,0,0.06172839506172839,78.8888888888889,0)" xlink:href="#aw"/><use transform="matrix(0.06172839506172839,0,0,0.06172839506172839,85.06172839506173,0)" xlink:href="#aw"/><use transform="matrix(0.06172839506172839,0,0,0.06172839506172839,91.23456790123457,0)" xlink:href="#aw"/></g><g id="s"><use transform="matrix(0.06172839506172839,0,0,0.06172839506172839,0,0)" xlink:href="#as"/><use transform="matrix(0.06172839506172839,0,0,0.06172839506172839,6.172839506172839,0)" xlink:href="#as"/><use transform="matrix(0.06172839506172839,0,0,0.06172839506172839,12.345679012345679,0)" xlink:href="#as"/><use transform="matrix(0.06172839506172839,0,0,0.06172839506172839,18.51851851851852,0)" xlink:href="#af"/><use transform="matrix(0.06172839506172839,0,0,0.06172839506172839,36.9753086419753,0)" xlink:href="#an"/><use transform="matrix(0.06172839506172839,0,0,0.06172839506172839,49.32098765432098,0)" xlink:href="#aq"/><use transform="matrix(0.06172839506172839,0,0,0.06172839506172839,56.66666666666666,0)" xlink:href="#ag"/></g><g id="t"><use transform="matrix(0.06172839506172839,0,0,0.06172839506172839,0,0)" xlink:href="#ak"/><use transform="matrix(0.06172839506172839,0,0,0.06172839506172839,6.172839506172839,0)" xlink:href="#ai"/><use transform="matrix(0.06172839506172839,0,0,0.06172839506172839,11.049382716049383,0)" xlink:href="#al"/><use transform="matrix(0.06172839506172839,0,0,0.06172839506172839,15.925925925925926,0)" xlink:href="#ag"/><use transform="matrix(0.06172839506172839,0,0,0.06172839506172839,28.271604938271604,0)" xlink:href="#au"/><use transform="matrix(0.06172839506172839,0,0,0.06172839506172839,39.382716049382715,0)" xlink:href="#as"/><use transform="matrix(0.06172839506172839,0,0,0.06172839506172839,45.55555555555556,0)" xlink:href="#as"/><use transform="matrix(0.06172839506172839,0,0,0.06172839506172839,51.7283950617284,0)" xlink:href="#as"/></g><path fill="#333" d="M96-169c-40 0-48 33-48 73s9 75 48 75c24 0 41-14 43-38l32 2c-6 37-31 61-74 61-59 0-76-41-82-99-10-93 101-131 147-64 4 7 5 14 7 22l-32 3c-4-21-16-35-41-35" id="ax"/><path fill="#333" d="M114-163C36-179 61-72 57 0H25l-1-190h30c1 12-1 29 2 39 6-27 23-49 58-41v29" id="ay"/><path fill="#333" d="M100-194c63 0 86 42 84 106H49c0 40 14 67 53 68 26 1 43-12 49-29l28 8c-11 28-37 45-77 45C44 4 14-33 15-96c1-61 26-98 85-98zm52 81c6-60-76-77-97-28-3 7-6 17-6 28h103" id="az"/><path fill="#333" d="M141-36C126-15 110 5 73 4 37 3 15-17 15-53c-1-64 63-63 125-63 3-35-9-54-41-54-24 1-41 7-42 31l-33-3c5-37 33-52 76-52 45 0 72 20 72 64v82c-1 20 7 32 28 27v20c-31 9-61-2-59-35zM48-53c0 20 12 33 32 33 41-3 63-29 60-74-43 2-92-5-92 41" id="aA"/><path fill="#333" d="M59-47c-2 24 18 29 38 22v24C64 9 27 4 27-40v-127H5v-23h24l9-43h21v43h35v23H59v120" id="aB"/><path fill="#333" d="M0 4l72-265h28L28 4H0" id="aC"/><path fill="#333" d="M135-143c-3-34-86-38-87 0 15 53 115 12 119 90S17 21 10-45l28-5c4 36 97 45 98 0-10-56-113-15-118-90-4-57 82-63 122-42 12 7 21 19 24 35" id="aD"/><path fill="#333" d="M143 0L79-87 56-68V0H24v-261h32v163l83-92h37l-77 82L181 0h-38" id="aE"/><path fill="#333" d="M85-194c31 0 48 13 60 33l-1-100h32l1 261h-30c-2-10 0-23-3-31C134-8 116 4 85 4 32 4 16-35 15-94c0-66 23-100 70-100zm9 24c-40 0-46 34-46 75 0 40 6 74 45 74 42 0 51-32 51-76 0-42-9-74-50-73" id="aF"/><path fill="#333" d="M24 0v-261h32V0H24" id="aG"/><g id="u"><use transform="matrix(0.04938271604938272,0,0,0.04938271604938272,0,0)" xlink:href="#ax"/><use transform="matrix(0.04938271604938272,0,0,0.04938271604938272,8.88888888888889,0)" xlink:href="#ay"/><use transform="matrix(0.04938271604938272,0,0,0.04938271604938272,14.765432098765434,0)" xlink:href="#az"/><use transform="matrix(0.04938271604938272,0,0,0.04938271604938272,24.641975308641978,0)" xlink:href="#aA"/><use transform="matrix(0.04938271604938272,0,0,0.04938271604938272,34.51851851851852,0)" xlink:href="#aB"/><use transform="matrix(0.04938271604938272,0,0,0.04938271604938272,39.45679012345679,0)" xlink:href="#az"/><use transform="matrix(0.04938271604938272,0,0,0.04938271604938272,49.333333333333336,0)" xlink:href="#aC"/><use transform="matrix(0.04938271604938272,0,0,0.04938271604938272,54.27160493827161,0)" xlink:href="#aD"/><use transform="matrix(0.04938271604938272,0,0,0.04938271604938272,63.1604938271605,0)" xlink:href="#az"/><use transform="matrix(0.04938271604938272,0,0,0.04938271604938272,73.03703703703704,0)" xlink:href="#az"/><use transform="matrix(0.04938271604938272,0,0,0.04938271604938272,82.91358024691358,0)" xlink:href="#aE"/><use transform="matrix(0.04938271604938272,0,0,0.04938271604938272,91.80246913580247,0)" xlink:href="#aC"/><use transform="matrix(0.04938271604938272,0,0,0.04938271604938272,96.74074074074073,0)" xlink:href="#aF"/><use transform="matrix(0.04938271604938272,0,0,0.04938271604938272,106.61728395061726,0)" xlink:href="#az"/><use transform="matrix(0.04938271604938272,0,0,0.04938271604938272,116.49382716049381,0)" xlink:href="#aG"/><use transform="matrix(0.04938271604938272,0,0,0.04938271604938272,120.39506172839508,0)" xlink:href="#az"/><use transform="matrix(0.04938271604938272,0,0,0.04938271604938272,130.2716049382716,0)" xlink:href="#aB"/><use transform="matrix(0.04938271604938272,0,0,0.04938271604938272,135.20987654320987,0)" xlink:href="#az"/></g><path fill="#3a414a" d="M84 4C-5 8 30-112 23-190h32v120c0 31 7 50 39 49 72-2 45-101 50-169h31l1 190h-30c-1-10 1-25-2-33-11 22-28 36-60 37" id="aH"/><path fill="#3a414a" d="M115-194c55 1 70 41 70 98S169 2 115 4C84 4 66-9 55-30l1 105H24l-1-265h31l2 30c10-21 28-34 59-34zm-8 174c40 0 45-34 45-75s-6-73-45-74c-42 0-51 32-51 76 0 43 10 73 51 73" id="aI"/><g id="v"><use transform="matrix(0.06172839506172839,0,0,0.06172839506172839,0,0)" xlink:href="#aH"/><use transform="matrix(0.06172839506172839,0,0,0.06172839506172839,12.345679012345679,0)" xlink:href="#aI"/><use transform="matrix(0.06172839506172839,0,0,0.06172839506172839,24.691358024691358,0)" xlink:href="#ah"/><use transform="matrix(0.06172839506172839,0,0,0.06172839506172839,37.03703703703704,0)" xlink:href="#aj"/><use transform="matrix(0.06172839506172839,0,0,0.06172839506172839,49.382716049382715,0)" xlink:href="#ao"/><use transform="matrix(0.06172839506172839,0,0,0.06172839506172839,55.55555555555556,0)" xlink:href="#ag"/></g><path fill="#333" d="M145-31C134-9 116 4 85 4 32 4 16-35 15-94c0-59 17-99 70-100 32-1 48 14 60 33 0-11-1-24 2-32h30l-1 268h-32zM93-21c41 0 51-33 51-76s-8-73-50-73c-40 0-46 35-46 75s5 74 45 74" id="aJ"/><path fill="#333" d="M84 4C-5 8 30-112 23-190h32v120c0 31 7 50 39 49 72-2 45-101 50-169h31l1 190h-30c-1-10 1-25-2-33-11 22-28 36-60 37" id="aK"/><g id="w"><use transform="matrix(0.04938271604938272,0,0,0.04938271604938272,0,0)" xlink:href="#ax"/><use transform="matrix(0.04938271604938272,0,0,0.04938271604938272,8.88888888888889,0)" xlink:href="#ay"/><use transform="matrix(0.04938271604938272,0,0,0.04938271604938272,14.765432098765434,0)" xlink:href="#az"/><use transform="matrix(0.04938271604938272,0,0,0.04938271604938272,24.641975308641978,0)" xlink:href="#aA"/><use transform="matrix(0.04938271604938272,0,0,0.04938271604938272,34.51851851851852,0)" xlink:href="#aB"/><use transform="matrix(0.04938271604938272,0,0,0.04938271604938272,39.45679012345679,0)" xlink:href="#az"/><use transform="matrix(0.04938271604938272,0,0,0.04938271604938272,49.333333333333336,0)" xlink:href="#aC"/><use transform="matrix(0.04938271604938272,0,0,0.04938271604938272,54.27160493827161,0)" xlink:href="#ay"/><use transform="matrix(0.04938271604938272,0,0,0.04938271604938272,60.14814814814815,0)" xlink:href="#az"/><use transform="matrix(0.04938271604938272,0,0,0.04938271604938272,70.0246913580247,0)" xlink:href="#aJ"/><use transform="matrix(0.04938271604938272,0,0,0.04938271604938272,79.90123456790124,0)" xlink:href="#aK"/><use transform="matrix(0.04938271604938272,0,0,0.04938271604938272,89.77777777777779,0)" xlink:href="#az"/><use transform="matrix(0.04938271604938272,0,0,0.04938271604938272,99.65432098765433,0)" xlink:href="#aD"/><use transform="matrix(0.04938271604938272,0,0,0.04938271604938272,108.54320987654322,0)" xlink:href="#aB"/><use transform="matrix(0.04938271604938272,0,0,0.04938271604938272,113.4814814814815,0)" xlink:href="#aC"/><use transform="matrix(0.04938271604938272,0,0,0.04938271604938272,118.41975308641979,0)" xlink:href="#aF"/><use transform="matrix(0.04938271604938272,0,0,0.04938271604938272,128.2962962962963,0)" xlink:href="#az"/><use transform="matrix(0.04938271604938272,0,0,0.04938271604938272,138.17283950617286,0)" xlink:href="#aG"/><use transform="matrix(0.04938271604938272,0,0,0.04938271604938272,142.0740740740741,0)" xlink:href="#az"/><use transform="matrix(0.04938271604938272,0,0,0.04938271604938272,151.95061728395063,0)" xlink:href="#aB"/><use transform="matrix(0.04938271604938272,0,0,0.04938271604938272,156.8888888888889,0)" xlink:href="#az"/></g><g id="x"><use transform="matrix(0.04938271604938272,0,0,0.04938271604938272,0,0)" xlink:href="#ax"/><use transform="matrix(0.04938271604938272,0,0,0.04938271604938272,8.88888888888889,0)" xlink:href="#ay"/><use transform="matrix(0.04938271604938272,0,0,0.04938271604938272,14.765432098765434,0)" xlink:href="#az"/><use transform="matrix(0.04938271604938272,0,0,0.04938271604938272,24.641975308641978,0)" xlink:href="#aA"/><use transform="matrix(0.04938271604938272,0,0,0.04938271604938272,34.51851851851852,0)" xlink:href="#aB"/><use transform="matrix(0.04938271604938272,0,0,0.04938271604938272,39.45679012345679,0)" xlink:href="#az"/><use transform="matrix(0.04938271604938272,0,0,0.04938271604938272,49.333333333333336,0)" xlink:href="#aC"/><use transform="matrix(0.04938271604938272,0,0,0.04938271604938272,54.27160493827161,0)" xlink:href="#ay"/><use transform="matrix(0.04938271604938272,0,0,0.04938271604938272,60.14814814814815,0)" xlink:href="#az"/><use transform="matrix(0.04938271604938272,0,0,0.04938271604938272,70.0246913580247,0)" xlink:href="#aJ"/><use transform="matrix(0.04938271604938272,0,0,0.04938271604938272,79.90123456790124,0)" xlink:href="#aK"/><use transform="matrix(0.04938271604938272,0,0,0.04938271604938272,89.77777777777779,0)" xlink:href="#az"/><use transform="matrix(0.04938271604938272,0,0,0.04938271604938272,99.65432098765433,0)" xlink:href="#aD"/><use transform="matrix(0.04938271604938272,0,0,0.04938271604938272,108.54320987654322,0)" xlink:href="#aB"/><use transform="matrix(0.04938271604938272,0,0,0.04938271604938272,113.4814814814815,0)" xlink:href="#aC"/><use transform="matrix(0.04938271604938272,0,0,0.04938271604938272,118.41975308641979,0)" xlink:href="#aF"/><use transform="matrix(0.04938271604938272,0,0,0.04938271604938272,128.2962962962963,0)" xlink:href="#az"/><use transform="matrix(0.04938271604938272,0,0,0.04938271604938272,138.17283950617286,0)" xlink:href="#aG"/><use transform="matrix(0.04938271604938272,0,0,0.04938271604938272,142.0740740740741,0)" xlink:href="#az"/><use transform="matrix(0.04938271604938272,0,0,0.04938271604938272,151.95061728395063,0)" xlink:href="#aB"/><use transform="matrix(0.04938271604938272,0,0,0.04938271604938272,156.8888888888889,0)" xlink:href="#az"/></g><path fill="#3a414a" d="M206 0h-36l-40-164L89 0H53L-1-190h32L70-26l43-164h34l41 164 42-164h31" id="aL"/><path fill="#3a414a" d="M115-194c53 0 69 39 70 98 0 66-23 100-70 100C84 3 66-7 56-30L54 0H23l1-261h32v101c10-23 28-34 59-34zm-8 174c40 0 45-34 45-75 0-40-5-75-45-74-42 0-51 32-51 76 0 43 10 73 51 73" id="aM"/><g id="y"><use transform="matrix(0.06172839506172839,0,0,0.06172839506172839,0,0)" xlink:href="#aL"/><use transform="matrix(0.06172839506172839,0,0,0.06172839506172839,15.987654320987653,0)" xlink:href="#ag"/><use transform="matrix(0.06172839506172839,0,0,0.06172839506172839,28.333333333333332,0)" xlink:href="#aM"/></g><path fill="#3a414a" d="M108 0H70L1-190h34L89-25l56-165h34" id="aN"/><g id="z"><use transform="matrix(0.06172839506172839,0,0,0.06172839506172839,0,0)" xlink:href="#au"/><use transform="matrix(0.06172839506172839,0,0,0.06172839506172839,11.11111111111111,0)" xlink:href="#ag"/><use transform="matrix(0.06172839506172839,0,0,0.06172839506172839,23.45679012345679,0)" xlink:href="#aq"/><use transform="matrix(0.06172839506172839,0,0,0.06172839506172839,30.80246913580247,0)" xlink:href="#aN"/><use transform="matrix(0.06172839506172839,0,0,0.06172839506172839,41.91358024691358,0)" xlink:href="#ag"/><use transform="matrix(0.06172839506172839,0,0,0.06172839506172839,54.25925925925926,0)" xlink:href="#aq"/></g><g id="A"><use transform="matrix(0.06172839506172839,0,0,0.06172839506172839,0,0)" xlink:href="#ar"/><use transform="matrix(0.06172839506172839,0,0,0.06172839506172839,11.11111111111111,0)" xlink:href="#al"/><use transform="matrix(0.06172839506172839,0,0,0.06172839506172839,15.987654320987653,0)" xlink:href="#ai"/><use transform="matrix(0.06172839506172839,0,0,0.06172839506172839,20.864197530864196,0)" xlink:href="#ag"/><use transform="matrix(0.06172839506172839,0,0,0.06172839506172839,33.20987654320987,0)" xlink:href="#am"/><use transform="matrix(0.06172839506172839,0,0,0.06172839506172839,45.55555555555555,0)" xlink:href="#ao"/></g><path fill="#3a414a" d="M177-190C167-65 218 103 67 71c-23-6-38-20-44-43l32-5c15 47 100 32 89-28v-30C133-14 115 1 83 1 29 1 15-40 15-95c0-56 16-97 71-98 29-1 48 16 59 35 1-10 0-23 2-32h30zM94-22c36 0 50-32 50-73 0-42-14-75-50-75-39 0-46 34-46 75s6 73 46 73" id="aO"/><g id="B"><use transform="matrix(0.06172839506172839,0,0,0.06172839506172839,0,0)" xlink:href="#aI"/><use transform="matrix(0.06172839506172839,0,0,0.06172839506172839,12.345679012345679,0)" xlink:href="#aq"/><use transform="matrix(0.06172839506172839,0,0,0.06172839506172839,19.691358024691358,0)" xlink:href="#an"/><use transform="matrix(0.06172839506172839,0,0,0.06172839506172839,32.03703703703704,0)" xlink:href="#aO"/><use transform="matrix(0.06172839506172839,0,0,0.06172839506172839,44.382716049382715,0)" xlink:href="#aq"/><use transform="matrix(0.06172839506172839,0,0,0.06172839506172839,51.72839506172839,0)" xlink:href="#aj"/><use transform="matrix(0.06172839506172839,0,0,0.06172839506172839,64.07407407407408,0)" xlink:href="#af"/></g><path fill="#333" d="M115-194c55 1 70 41 70 98S169 2 115 4C84 4 66-9 55-30l1 105H24l-1-265h31l2 30c10-21 28-34 59-34zm-8 174c40 0 45-34 45-75s-6-73-45-74c-42 0-51 32-51 76 0 43 10 73 51 73" id="aP"/><g id="C"><use transform="matrix(0.04938271604938272,0,0,0.04938271604938272,0,0)" xlink:href="#aK"/><use transform="matrix(0.04938271604938272,0,0,0.04938271604938272,9.876543209876544,0)" xlink:href="#aP"/><use transform="matrix(0.04938271604938272,0,0,0.04938271604938272,19.75308641975309,0)" xlink:href="#aF"/><use transform="matrix(0.04938271604938272,0,0,0.04938271604938272,29.629629629629633,0)" xlink:href="#aA"/><use transform="matrix(0.04938271604938272,0,0,0.04938271604938272,39.50617283950618,0)" xlink:href="#aB"/><use transform="matrix(0.04938271604938272,0,0,0.04938271604938272,44.44444444444445,0)" xlink:href="#az"/><use transform="matrix(0.04938271604938272,0,0,0.04938271604938272,54.320987654320994,0)" xlink:href="#aF"/></g><path fill="#333" d="M179-190L93 31C79 59 56 82 12 73V49c39 6 53-20 64-50L1-190h34L92-34l54-156h33" id="aQ"/><g id="D"><use transform="matrix(0.04938271604938272,0,0,0.04938271604938272,0,0)" xlink:href="#aP"/><use transform="matrix(0.04938271604938272,0,0,0.04938271604938272,9.876543209876544,0)" xlink:href="#aG"/><use transform="matrix(0.04938271604938272,0,0,0.04938271604938272,13.777777777777779,0)" xlink:href="#aA"/><use transform="matrix(0.04938271604938272,0,0,0.04938271604938272,23.654320987654323,0)" xlink:href="#aQ"/></g><path fill="#333" d="M24-231v-30h32v30H24zM24 0v-190h32V0H24" id="aR"/><g id="E"><use transform="matrix(0.04938271604938272,0,0,0.04938271604938272,0,0)" xlink:href="#aD"/><use transform="matrix(0.04938271604938272,0,0,0.04938271604938272,8.88888888888889,0)" xlink:href="#ax"/><use transform="matrix(0.04938271604938272,0,0,0.04938271604938272,17.77777777777778,0)" xlink:href="#ay"/><use transform="matrix(0.04938271604938272,0,0,0.04938271604938272,23.654320987654323,0)" xlink:href="#aR"/><use transform="matrix(0.04938271604938272,0,0,0.04938271604938272,27.555555555555557,0)" xlink:href="#aP"/><use transform="matrix(0.04938271604938272,0,0,0.04938271604938272,37.4320987654321,0)" xlink:href="#aB"/></g><path fill="#333" d="M233-177c-1 41-23 64-60 70L243 0h-38l-65-103H63V0H30v-248c88 3 205-21 203 71zM63-129c60-2 137 13 137-47 0-61-80-42-137-45v92" id="aS"/><path fill="#333" d="M30 0v-248h187v28H63v79h144v27H63v87h162V0H30" id="aT"/><path fill="#333" d="M185-189c-5-48-123-54-124 2 14 75 158 14 163 119 3 78-121 87-175 55-17-10-28-26-33-46l33-7c5 56 141 63 141-1 0-78-155-14-162-118-5-82 145-84 179-34 5 7 8 16 11 25" id="aU"/><path fill="#333" d="M127-220V0H93v-220H8v-28h204v28h-85" id="aV"/><g id="F"><use transform="matrix(0.04938271604938272,0,0,0.04938271604938272,0,0)" xlink:href="#aS"/><use transform="matrix(0.04938271604938272,0,0,0.04938271604938272,12.790123456790125,0)" xlink:href="#aT"/><use transform="matrix(0.04938271604938272,0,0,0.04938271604938272,24.641975308641978,0)" xlink:href="#aU"/><use transform="matrix(0.04938271604938272,0,0,0.04938271604938272,36.49382716049383,0)" xlink:href="#aV"/></g><path fill="#333" d="M87 75C49 33 22-17 22-94c0-76 28-126 65-167h31c-38 41-64 92-64 168S80 34 118 75H87" id="aW"/><path fill="#333" d="M153-248C145-148 188 4 80 4 36 3 13-21 6-62l32-5c4 25 16 42 43 43 27 0 39-20 39-49v-147H72v-28h81" id="aX"/><path fill="#333" d="M140-251c81 0 123 46 123 126C263-46 219 4 140 4 59 4 17-45 17-125s42-126 123-126zm0 227c63 0 89-41 89-101s-29-99-89-99c-61 0-89 39-89 99S79-25 140-24" id="aY"/><path fill="#333" d="M190 0L58-211 59 0H30v-248h39L202-35l-2-213h31V0h-41" id="aZ"/><g id="G"><use transform="matrix(0.04938271604938272,0,0,0.04938271604938272,0,0)" xlink:href="#aW"/><use transform="matrix(0.04938271604938272,0,0,0.04938271604938272,5.8765432098765435,0)" xlink:href="#aX"/><use transform="matrix(0.04938271604938272,0,0,0.04938271604938272,14.765432098765434,0)" xlink:href="#aU"/><use transform="matrix(0.04938271604938272,0,0,0.04938271604938272,26.617283950617285,0)" xlink:href="#aY"/><use transform="matrix(0.04938271604938272,0,0,0.04938271604938272,40.44444444444444,0)" xlink:href="#aZ"/></g><path fill="#333" d="M197 0v-115H63V0H30v-248h33v105h134v-105h34V0h-34" id="ba"/><path fill="#333" d="M30-248c87 1 191-15 191 75 0 78-77 80-158 76V0H30v-248zm33 125c57 0 124 11 124-50 0-59-68-47-124-48v98" id="bb"/><path fill="#333" d="M33-261c38 41 65 92 65 168S71 34 33 75H2C39 34 66-17 66-93S39-220 2-261h31" id="bc"/><g id="H"><use transform="matrix(0.04938271604938272,0,0,0.04938271604938272,0,0)" xlink:href="#ba"/><use transform="matrix(0.04938271604938272,0,0,0.04938271604938272,12.790123456790125,0)" xlink:href="#aV"/><use transform="matrix(0.04938271604938272,0,0,0.04938271604938272,23.60493827160494,0)" xlink:href="#aV"/><use transform="matrix(0.04938271604938272,0,0,0.04938271604938272,34.41975308641975,0)" xlink:href="#bb"/><use transform="matrix(0.04938271604938272,0,0,0.04938271604938272,46.27160493827161,0)" xlink:href="#bc"/></g><path fill="#3a414a" d="M197 0v-115H63V0H30v-248h33v105h134v-105h34V0h-34" id="bd"/><path fill="#3a414a" d="M30-248c118-7 216 8 213 122C240-48 200 0 122 0H30v-248zM63-27c89 8 146-16 146-99s-60-101-146-95v194" id="be"/><path fill="#3a414a" d="M240 0l2-218c-23 76-54 145-80 218h-23L58-218 59 0H30v-248h44l77 211c21-75 51-140 76-211h43V0h-30" id="bf"/><path fill="#3a414a" d="M33 0v-248h34V0H33" id="bg"/><path fill="#3a414a" d="M16-82v-28h88v28H16" id="bh"/><path fill="#3a414a" d="M27 0v-27h64v-190l-56 39v-29l58-41h29v221h61V0H27" id="bi"/><g id="I"><use transform="matrix(0.06172839506172839,0,0,0.06172839506172839,0,0)" xlink:href="#bd"/><use transform="matrix(0.06172839506172839,0,0,0.06172839506172839,15.987654320987653,0)" xlink:href="#be"/><use transform="matrix(0.06172839506172839,0,0,0.06172839506172839,31.975308641975307,0)" xlink:href="#bf"/><use transform="matrix(0.06172839506172839,0,0,0.06172839506172839,50.432098765432094,0)" xlink:href="#bg"/><use transform="matrix(0.06172839506172839,0,0,0.06172839506172839,56.60493827160494,0)" xlink:href="#bh"/><use transform="matrix(0.06172839506172839,0,0,0.06172839506172839,63.95061728395061,0)" xlink:href="#bi"/></g><g id="J"><use transform="matrix(0.06172839506172839,0,0,0.06172839506172839,0,0)" xlink:href="#an"/><use transform="matrix(0.06172839506172839,0,0,0.06172839506172839,12.345679012345679,0)" xlink:href="#aH"/><use transform="matrix(0.06172839506172839,0,0,0.06172839506172839,24.691358024691358,0)" xlink:href="#ao"/><use transform="matrix(0.06172839506172839,0,0,0.06172839506172839,30.864197530864196,0)" xlink:href="#aI"/><use transform="matrix(0.06172839506172839,0,0,0.06172839506172839,43.20987654320987,0)" xlink:href="#aH"/><use transform="matrix(0.06172839506172839,0,0,0.06172839506172839,55.55555555555555,0)" xlink:href="#ao"/></g><g id="K"><use transform="matrix(0.06172839506172839,0,0,0.06172839506172839,0,0)" xlink:href="#ao"/><use transform="matrix(0.06172839506172839,0,0,0.06172839506172839,6.172839506172839,0)" xlink:href="#ai"/><use transform="matrix(0.06172839506172839,0,0,0.06172839506172839,11.049382716049383,0)" xlink:href="#af"/><use transform="matrix(0.06172839506172839,0,0,0.06172839506172839,29.50617283950617,0)" xlink:href="#ag"/><use transform="matrix(0.06172839506172839,0,0,0.06172839506172839,41.85185185185185,0)" xlink:href="#al"/><use transform="matrix(0.06172839506172839,0,0,0.06172839506172839,46.72839506172839,0)" xlink:href="#ai"/><use transform="matrix(0.06172839506172839,0,0,0.06172839506172839,51.60493827160494,0)" xlink:href="#am"/><use transform="matrix(0.06172839506172839,0,0,0.06172839506172839,63.95061728395061,0)" xlink:href="#ag"/></g><path fill="#3a414a" d="M101-251c82-7 93 87 43 132L82-64C71-53 59-42 53-27h129V0H18c2-99 128-94 128-182 0-28-16-43-45-43s-46 15-49 41l-32-3c6-41 34-60 81-64" id="bj"/><g id="L"><use transform="matrix(0.06172839506172839,0,0,0.06172839506172839,0,0)" xlink:href="#bd"/><use transform="matrix(0.06172839506172839,0,0,0.06172839506172839,15.987654320987653,0)" xlink:href="#be"/><use transform="matrix(0.06172839506172839,0,0,0.06172839506172839,31.975308641975307,0)" xlink:href="#bf"/><use transform="matrix(0.06172839506172839,0,0,0.06172839506172839,50.432098765432094,0)" xlink:href="#bg"/><use transform="matrix(0.06172839506172839,0,0,0.06172839506172839,56.60493827160494,0)" xlink:href="#bh"/><use transform="matrix(0.06172839506172839,0,0,0.06172839506172839,63.95061728395061,0)" xlink:href="#bj"/></g><path fill="#3a414a" d="M179-190L93 31C79 59 56 82 12 73V49c39 6 53-20 64-50L1-190h34L92-34l54-156h33" id="bk"/><g id="M"><use transform="matrix(0.06172839506172839,0,0,0.06172839506172839,0,0)" xlink:href="#aI"/><use transform="matrix(0.06172839506172839,0,0,0.06172839506172839,12.345679012345679,0)" xlink:href="#al"/><use transform="matrix(0.06172839506172839,0,0,0.06172839506172839,17.22222222222222,0)" xlink:href="#aj"/><use transform="matrix(0.06172839506172839,0,0,0.06172839506172839,29.5679012345679,0)" xlink:href="#bk"/><use transform="matrix(0.06172839506172839,0,0,0.06172839506172839,40.67901234567901,0)" xlink:href="#ag"/><use transform="matrix(0.06172839506172839,0,0,0.06172839506172839,53.02469135802469,0)" xlink:href="#aq"/></g><g id="N"><use transform="matrix(0.06172839506172839,0,0,0.06172839506172839,0,0)" xlink:href="#bd"/><use transform="matrix(0.06172839506172839,0,0,0.06172839506172839,15.987654320987653,0)" xlink:href="#be"/><use transform="matrix(0.06172839506172839,0,0,0.06172839506172839,31.975308641975307,0)" xlink:href="#bf"/><use transform="matrix(0.06172839506172839,0,0,0.06172839506172839,50.432098765432094,0)" xlink:href="#bg"/><use transform="matrix(0.06172839506172839,0,0,0.06172839506172839,56.60493827160494,0)" xlink:href="#bh"/><use transform="matrix(0.06172839506172839,0,0,0.06172839506172839,63.95061728395061,0)" xlink:href="#bi"/></g><g id="O"><use transform="matrix(0.06172839506172839,0,0,0.06172839506172839,0,0)" xlink:href="#bd"/><use transform="matrix(0.06172839506172839,0,0,0.06172839506172839,15.987654320987653,0)" xlink:href="#be"/><use transform="matrix(0.06172839506172839,0,0,0.06172839506172839,31.975308641975307,0)" xlink:href="#bf"/><use transform="matrix(0.06172839506172839,0,0,0.06172839506172839,50.432098765432094,0)" xlink:href="#bg"/><use transform="matrix(0.06172839506172839,0,0,0.06172839506172839,56.60493827160494,0)" xlink:href="#bh"/><use transform="matrix(0.06172839506172839,0,0,0.06172839506172839,63.95061728395061,0)" xlink:href="#bj"/></g></defs></g></svg>